<?xml version="1.0" encoding="utf-8"?>
<!-- Generator: Adobe Illustrator 19.0.0, SVG Export Plug-In . SVG Version: 6.00 Build 0)  -->
<svg version="1.1" id="Слой_1" xmlns="http://www.w3.org/2000/svg" xmlns:xlink="http://www.w3.org/1999/xlink" x="0px" y="0px"
	 viewBox="0 0 89.3 59.4" style="enable-background:new 0 0 89.3 59.4;" xml:space="preserve">
<g>
	<g id="XMLID_1_">
		<g>
			<path d="M88.8,48.3h-2.6h-1.3c-0.1-0.6-0.3-1.1-0.6-1.4c-0.4-0.4-1.1-0.6-2.1-0.6c-1,0-1.6,0.2-2,0.5c-0.3,0.2-0.4,0.6-0.4,1
				c0,0.6,0.8,1.1,2.4,1.4c1.9,0.4,3.2,0.8,4,1c0.2,0.1,0.4,0.1,0.5,0.2c1.7,0.8,2.5,2,2.5,3.5c0,1.9-0.8,3.3-2.4,4.2
				c-0.2,0.1-0.4,0.2-0.6,0.3c-1,0.4-2.2,0.7-3.6,0.7c-2,0-3.7-0.4-4.9-1.1c-0.8-0.5-1.4-1-1.8-1.7c-0.4-0.7-0.6-1.5-0.6-2.4h4.1
				c0,0.7,0.3,1.3,0.8,1.6c0.5,0.4,1.3,0.6,2.5,0.6c0.9,0,1.6-0.2,2-0.6c0.3-0.3,0.5-0.6,0.5-1c0-0.6-0.8-1.1-2.4-1.5
				c-2.4-0.5-3.9-0.9-4.5-1.2c-1.6-0.8-2.4-1.9-2.4-3.6c0-1.3,0.4-2.4,1.3-3.3c1.1-1.1,2.7-1.7,4.8-1.7c1.8,0,3.2,0.3,4.2,0.8
				c0.1,0,0.2,0.1,0.3,0.1c0.8,0.4,1.3,1,1.7,1.7C88.6,46.5,88.8,47.3,88.8,48.3z"/>
			<path d="M86.8,38.8c0-0.1,0-0.1-0.1-0.2c0-0.1-0.1-0.1-0.2-0.1c-0.1,0-0.1,0-0.3,0h-0.1h-0.5v0.8h0.5c0,0,0.1,0,0.1,0
				c0.2,0,0.3,0,0.4-0.1C86.7,39,86.8,38.9,86.8,38.8z M87.1,38.4c0.1,0.1,0.1,0.2,0.1,0.4c0,0.2-0.1,0.3-0.2,0.5
				c-0.1,0.1-0.3,0.2-0.5,0.2c0.1,0,0.2,0.1,0.2,0.1l0.4,0.5l0.3,0.5h-0.5l-0.2-0.4c-0.1-0.3-0.3-0.4-0.4-0.5c0,0,0,0-0.1,0
				l-0.3-0.1h-0.2v1.1h-0.4V38h0.9c0.1,0,0.1,0,0.1,0c0.2,0,0.4,0,0.5,0.1C86.9,38.2,87,38.2,87.1,38.4z"/>
			<path d="M88.2,39.3c0-0.3-0.1-0.7-0.3-1c-0.2-0.3-0.4-0.6-0.7-0.7c-0.3-0.2-0.6-0.3-1-0.3c0,0,0,0,0,0c-0.3,0-0.6,0.1-1,0.3
				c-0.3,0.2-0.6,0.4-0.7,0.7c-0.2,0.3-0.3,0.6-0.3,1c0,0.3,0.1,0.7,0.3,1c0.2,0.3,0.4,0.5,0.7,0.7c0.3,0.2,0.6,0.3,1,0.3
				c0,0,0,0,0,0c0.3,0,0.7-0.1,1-0.3c0.3-0.2,0.6-0.4,0.7-0.7C88.1,39.9,88.2,39.6,88.2,39.3z M88.6,39.3c0,0.4-0.1,0.8-0.3,1.2
				c-0.2,0.4-0.5,0.7-0.9,0.9c-0.4,0.2-0.8,0.3-1.2,0.3c0,0,0,0,0,0c-0.4,0-0.8-0.1-1.2-0.3c-0.4-0.2-0.7-0.5-0.9-0.9
				c-0.2-0.4-0.3-0.8-0.3-1.2c0-0.4,0.1-0.8,0.3-1.2c0.2-0.4,0.5-0.7,0.9-0.9c0.4-0.2,0.8-0.3,1.1-0.3c0,0,0,0,0,0
				c0.4,0,0.8,0.1,1.1,0.3c0.4,0.2,0.7,0.5,0.9,0.9C88.5,38.5,88.6,38.9,88.6,39.3z"/>
			<polygon points="65.8,20.3 76.8,38.7 65.8,38.7 59.1,38.7 48.5,21.1 40.6,7.8 48.5,3 53.6,0 			"/>
			<path d="M73.8,51.4V59h-3.7v-0.8c-1.2,0.8-2.7,1.3-4.3,1.3c0,0,0,0,0,0c-4.4,0-7.9-3.6-7.9-8c0-4.4,3.6-8,7.9-8c0,0,0,0,0,0
				c1.6,0,3.1,0.5,4.3,1.3v-0.9h3.7V51.4z M70.1,52.3v-1.7c-0.4-2-2.2-3.5-4.3-3.5c0,0,0,0,0,0c-2.4,0-4.4,2-4.4,4.4
				c0,2.4,1.9,4.4,4.4,4.4c0,0,0,0,0,0C67.9,55.8,69.7,54.3,70.1,52.3z"/>
			<path d="M56.5,51.4V59h-3.7v-0.8c-1.3,0.8-2.7,1.3-4.3,1.3c0,0,0,0,0,0c-4.4,0-7.9-3.6-7.9-8c0-4.4,3.6-8,7.9-8c0,0,0,0,0,0
				c1.6,0,3,0.5,4.3,1.3v-6.1h3.7V51.4z M52.9,52.3v-1.7c-0.4-2-2.2-3.5-4.3-3.5c0,0,0,0,0,0c-2.4,0-4.4,2-4.4,4.4
				c0,2.4,1.9,4.4,4.4,4.4c0,0,0,0,0,0C50.7,55.8,52.5,54.3,52.9,52.3z"/>
			<polygon points="48.5,31.4 52.9,38.7 48.5,38.7 35.2,38.7 25.3,22.3 24.9,21.6 25.3,21.3 37.9,13.8 			"/>
			<rect x="35.2" y="43.4" width="4" height="15.5"/>
			<rect x="35.2" y="38.7" width="4" height="3.5"/>
			<path d="M33.3,51.4V59h-3.7v-0.8c-1.2,0.8-2.7,1.3-4.3,1.3c0,0,0,0,0,0c-4.4,0-7.9-3.6-7.9-8c0-4.4,3.6-8,7.9-8c0,0,0,0,0,0
				c1.6,0,3.1,0.5,4.3,1.3v-6.1h3.7V51.4z M29.7,52.3v-1.7c-0.4-2-2.2-3.5-4.3-3.5c0,0,0,0,0,0c-2.4,0-4.4,2-4.4,4.4
				c0,2.4,1.9,4.4,4.4,4.4c0,0,0,0,0,0C27.5,55.8,29.3,54.3,29.7,52.3z"/>
			<polygon points="25.3,32.6 29,38.7 25.3,38.7 11.2,38.7 9.2,35.3 22.3,27.5 			"/>
			<path d="M15.9,51.4V59h-3.7v-0.8C11,58.9,9.6,59.4,8,59.4c0,0,0,0,0,0c-4.4,0-7.9-3.6-7.9-8c0-4.4,3.6-8,7.9-8c0,0,0,0,0,0
				c1.6,0,3.1,0.5,4.3,1.3v-0.9h3.7V51.4z M12.3,52.3v-1.7c-0.4-2-2.2-3.5-4.3-3.5c0,0,0,0,0,0c-2.4,0-4.3,2-4.3,4.4
				c0,2.4,1.9,4.4,4.3,4.4c0,0,0,0,0,0C10.1,55.8,11.9,54.3,12.3,52.3z"/>
		</g>
	</g>
</g>
</svg>
