<?xml version="1.0" encoding="utf-8"?>
<!-- Generator: Adobe Illustrator 19.0.0, SVG Export Plug-In . SVG Version: 6.00 Build 0)  -->
<svg version="1.1" id="Слой_1" xmlns="http://www.w3.org/2000/svg" xmlns:xlink="http://www.w3.org/1999/xlink" x="0px" y="0px"
	 viewBox="0 0 144.3 58.6" style="enable-background:new 0 0 144.3 58.6;" xml:space="preserve">
<style type="text/css">
	.st0{fill:#848383;}
</style>
<g>
	<g id="XMLID_115_">
		<path id="XMLID_130_" class="st0" d="M48.7,19.7c-3-3.8-7.3-5.9-11.3-5.9c-5.3,0-7.5,2.5-11.2,2.5c-3.8,0-6.7-2.5-11.2-2.5
			c-4.5,0-9.3,2.7-12.3,7.4C-1.6,27.7-0.9,40,6,50.6c2.5,3.8,5.8,8,10.1,8c3.8,0,4.9-2.4,10.1-2.5c5.2,0,6.2,2.5,10,2.5
			c4.3,0,7.8-4.7,10.3-8.5c1.8-2.7,2.4-4.1,3.8-7.1C40.4,39.2,38.8,25.1,48.7,19.7z"/>
		<path id="XMLID_129_" class="st0" d="M33.4,9.5c1.9-2.5,3.4-6,2.9-9.5c-3.1,0.2-6.8,2.2-9,4.8c-1.9,2.4-3.6,5.9-2.9,9.3
			C27.8,14.2,31.3,12.2,33.4,9.5z"/>
		<path id="XMLID_126_" class="st0" d="M65,21l-7.8,24h4.6l2.1-7h7.7l2.2,7h4.8l-7.9-24H65z M64.6,35l1.9-6.2
			c0.4-1.4,0.8-2.8,1.2-4.8h0.1c0.4,2,0.8,3.3,1.2,4.8l1.9,6.2H64.6z"/>
		<path id="XMLID_123_" class="st0" d="M90.7,27.1c-2.7,0-4.7,0.9-6,2.9h-0.1l-0.2-2h-3.9c0.1,1,0.6,3.2,0.6,5.5V52h4v-9h0.1
			c0.9,2,2.7,2.5,4.9,2.5c4,0,8-3.1,8-9.4C98.1,30.6,94.7,27.1,90.7,27.1z M89.1,42.2c-1.9,0-3.5-1.3-3.9-3.1
			c-0.1-0.4-0.1-0.8-0.1-1.2v-2.7c0-0.4,0.1-0.8,0.2-1.1c0.4-1.9,2.1-3.3,4-3.3c2.8,0,4.4,2.5,4.4,5.6
			C93.6,39.8,91.9,42.2,89.1,42.2z"/>
		<path id="XMLID_120_" class="st0" d="M110.8,27.1c-2.7,0-4.7,0.9-6,2.9h-0.1l-0.2-2h-3.9c0.1,1,0.4,3.2,0.4,5.5V52h4v-9h0.2
			c0.9,2,2.7,2.5,4.9,2.5c4,0,8-3.1,8-9.4C118.2,30.6,114.9,27.1,110.8,27.1z M109.2,42.2c-1.9,0-3.5-1.3-4-3.1
			c-0.1-0.4-0.2-0.8-0.2-1.2v-2.7c0-0.4,0.1-0.8,0.3-1.1c0.4-1.9,2.2-3.3,4-3.3c2.8,0,4.4,2.5,4.4,5.6
			C113.7,39.8,112.1,42.2,109.2,42.2z"/>
		<rect id="XMLID_119_" x="121.1" y="20" class="st0" width="5" height="25"/>
		<path id="XMLID_116_" class="st0" d="M144.3,35.9c0-3.9-1.9-8.6-7.6-8.6c-5.6,0-8.6,4.5-8.6,9.4c0,5.4,3.3,8.8,9,8.8
			c2.5,0,4.6-0.5,6.1-1.1l-0.6-3.1c-1.3,0.5-2.8,0.9-4.9,0.9c-2.8,0-5.3-1.4-5.4-4.4h11.7C144.2,37,144.3,36.8,144.3,35.9z
			 M132.4,34c0.2-1,1.3-4.3,4.1-4.3c3,0,3.7,3.3,3.6,4.3H132.4z"/>
	</g>
</g>
</svg>
