<?xml version="1.0" encoding="utf-8"?>
<!-- Generator: Adobe Illustrator 19.0.0, SVG Export Plug-In . SVG Version: 6.00 Build 0)  -->
<svg version="1.1" id="Слой_1" xmlns="http://www.w3.org/2000/svg" xmlns:xlink="http://www.w3.org/1999/xlink" x="0px" y="0px"
	 viewBox="0 0 50.4 58.6" style="enable-background:new 0 0 50.4 58.6;" xml:space="preserve">
<style type="text/css">
	.st0{fill:#9F9E9E;}
</style>
<path class="st0" d="M48.7,19.7c-3-3.8-7.3-5.9-11.3-5.9c-5.3,0-7.5,2.5-11.2,2.5c-3.8,0-6.7-2.5-11.2-2.5c-4.5,0-9.3,2.7-12.3,7.4
	C-1.6,27.7-0.9,40,6,50.6c2.5,3.8,5.8,8,10.1,8c3.8,0,4.9-2.4,10.1-2.5c5.2,0,6.2,2.5,10,2.5c4.3,0,7.8-4.7,10.3-8.5
	c1.8-2.7,2.4-4.1,3.8-7.1C40.4,39.2,38.8,25.1,48.7,19.7z"/>
<path class="st0" d="M33.4,9.5c1.9-2.5,3.4-6,2.9-9.5c-3.1,0.2-6.8,2.2-9,4.8c-1.9,2.4-3.6,5.9-2.9,9.3
	C27.8,14.2,31.3,12.2,33.4,9.5z"/>
</svg>
