<?xml version="1.0" encoding="utf-8"?>
<!-- Generator: Adobe Illustrator 19.0.0, SVG Export Plug-In . SVG Version: 6.00 Build 0)  -->
<svg version="1.1" id="Layer_1" xmlns="http://www.w3.org/2000/svg" xmlns:xlink="http://www.w3.org/1999/xlink" x="0px" y="0px"
	 viewBox="0 0 217.8 164.5" style="enable-background:new 0 0 217.8 164.5;" xml:space="preserve">
<style type="text/css">
	.st0{fill:#e84422;}
</style>
<g>
	<g>
		<path class="st0" d="M0,0c0,0,0.1,1.1,0.2,3c0,0.5,0.1,1.1,0.1,1.7c0,0.3,0,0.6,0.1,1c0,0.3,0.1,0.7,0.2,1C0.7,8.1,1,9.8,1.2,11.6
			c0.4,1.8,0.9,3.8,1.4,6c0.3,1.1,0.7,2.2,1,3.3C4,22,4.3,23.2,4.8,24.4c0.9,2.4,1.8,5,3.1,7.6c0.6,1.3,1.2,2.7,1.9,4
			c0.7,1.3,1.4,2.7,2.2,4.1c0.7,1.4,1.6,2.8,2.4,4.2c0.9,1.4,1.7,2.9,2.6,4.3c1,1.4,1.9,2.9,2.9,4.3c1,1.5,2.1,2.9,3.1,4.3
			c2.1,3,4.5,5.8,6.9,8.8c2.5,2.8,5,5.8,7.8,8.6c5.4,5.8,11.4,11.3,17.8,16.7c1.6,1.3,3.2,2.7,4.8,4c1.7,1.3,3.3,2.6,5,3.8
			c1.6,1.3,3.4,2.5,5.1,3.7c1.7,1.2,3.4,2.5,5.2,3.6c3.5,2.3,7,4.7,10.6,6.8c3.5,2.2,7.2,4.3,10.8,6.3c1.8,1,3.7,1.9,5.5,2.9
			c1.8,0.9,3.6,1.9,5.5,2.8c3.7,1.7,7.3,3.5,10.9,5c1.8,0.8,3.6,1.5,5.4,2.3c1.8,0.7,3.6,1.4,5.4,2.1c3.5,1.4,7,2.6,10.4,3.7
			c0.9,0.3,1.7,0.6,2.5,0.9c0.9,0.3,1.7,0.5,2.5,0.8c1.7,0.5,3.3,1,5,1.5c1.6,0.5,3.2,0.9,4.8,1.3c1.6,0.4,3.1,0.8,4.7,1.2
			c6.1,1.4,11.7,2.7,16.8,3.5c5,1,9.4,1.4,13.1,1.9c1.8,0.3,3.4,0.3,4.9,0.5c1.4,0.1,2.6,0.2,3.6,0.3c1.9,0.2,3,0.3,3,0.3l-0.6,7.5
			c0,0-1.1-0.1-3.1-0.3c-1-0.1-2.2-0.3-3.7-0.4c-1.5-0.2-3.1-0.3-5-0.6c-3.7-0.6-8.3-1.2-13.4-2.3c-5.2-1-10.9-2.4-17.1-4
			c-1.5-0.4-3.1-0.9-4.7-1.4c-1.6-0.5-3.3-0.9-4.9-1.5c-1.6-0.5-3.3-1.1-5-1.7c-0.9-0.3-1.7-0.6-2.6-0.9c-0.9-0.3-1.7-0.6-2.6-1
			c-3.4-1.3-7-2.6-10.6-4.1c-1.8-0.7-3.6-1.5-5.4-2.3c-1.8-0.8-3.6-1.7-5.4-2.5c-3.7-1.6-7.3-3.6-11-5.4c-1.9-0.9-3.6-2-5.5-3
			c-1.8-1-3.7-2-5.5-3.1c-3.6-2.2-7.3-4.3-10.8-6.7c-3.6-2.3-7.1-4.8-10.6-7.2c-1.8-1.2-3.4-2.6-5.1-3.8c-1.7-1.3-3.4-2.6-5-3.9
			c-1.6-1.3-3.3-2.7-4.9-4c-1.6-1.4-3.2-2.8-4.8-4.2c-6.3-5.6-12.2-11.4-17.5-17.4c-2.7-2.9-5.2-6-7.7-9c-2.3-3.1-4.7-6-6.7-9
			c-1-1.5-2.1-3-3.1-4.5c-1-1.5-1.9-3-2.8-4.4c-0.9-1.5-1.7-3-2.5-4.4c-0.8-1.5-1.6-2.9-2.3-4.3c-0.7-1.4-1.4-2.8-2.1-4.2
			c-0.7-1.4-1.2-2.8-1.8-4.1c-1.2-2.7-2-5.3-2.9-7.7c-0.5-1.2-0.7-2.4-1.1-3.6c-0.3-1.2-0.6-2.3-0.9-3.4c-0.5-2.2-0.9-4.2-1.2-6
			C0.7,9.8,0.5,8.1,0.3,6.7c0-0.4-0.1-0.7-0.1-1c0-0.3,0-0.7,0-1c0-0.6,0-1.2-0.1-1.7C0,1.1,0,0,0,0z"/>
		<g>
			<polygon class="st0" points="192,164.5 197,154 193,143.2 217.8,155 			"/>
		</g>
	</g>
</g>
</svg>
