<?xml version="1.0" encoding="utf-8"?>
<!-- Generator: Adobe Illustrator 19.0.0, SVG Export Plug-In . SVG Version: 6.00 Build 0)  -->
<svg version="1.1" id="Слой_1" xmlns="http://www.w3.org/2000/svg" xmlns:xlink="http://www.w3.org/1999/xlink" x="0px" y="0px"
	 viewBox="0 0 103 103" style="enable-background:new 0 0 103 103;" xml:space="preserve">
<style type="text/css">
	.st0{fill:none;stroke:#FFFFFF;stroke-miterlimit:10;}
	.st1{fill:#FFFFFF;}
</style>
<g>
	<g>
		<circle class="st0" cx="51.5" cy="51.5" r="51"/>
		<circle class="st0" cx="51.5" cy="51.5" r="46"/>
	</g>
	<g>
		<path class="st1" d="M12.8,57.7h0.2c0.2-0.1,0.4-0.2,0.5-0.4c0.1-0.1,0.3-0.3,0.4-0.5c0.1-0.2,0.2-0.4,0.2-0.7l0.6-4.8h4.5v6.3h1
			v2.5h-0.8l-0.1-1.7h-5.5l-0.1,1.7h-0.8V57.7z M18.3,57.7v-5.5h-2.7l-0.5,3.9c0,0.3-0.1,0.5-0.2,0.7c-0.1,0.2-0.2,0.3-0.3,0.4
			c-0.1,0.1-0.3,0.2-0.4,0.3v0.1H18.3z"/>
		<path class="st1" d="M21,56.8v-3.5c0-0.3,0.1-0.5,0.2-0.8c0.1-0.2,0.2-0.4,0.4-0.6c0.2-0.2,0.4-0.3,0.7-0.4
			c0.3-0.1,0.5-0.1,0.9-0.1h1.8c0.3,0,0.6,0,0.9,0.1c0.3,0.1,0.5,0.2,0.7,0.4c0.2,0.2,0.3,0.4,0.4,0.6c0.1,0.2,0.2,0.5,0.2,0.8v3.5
			c0,0.3-0.1,0.5-0.2,0.8s-0.2,0.4-0.4,0.6s-0.4,0.3-0.7,0.4c-0.3,0.1-0.5,0.1-0.9,0.1h-1.8c-0.7,0-1.2-0.2-1.6-0.6
			C21.1,57.8,21,57.3,21,56.8z M21.9,53.3v3.5c0,0.3,0.1,0.6,0.3,0.8c0.2,0.2,0.5,0.3,0.8,0.3h1.8c0.3,0,0.6-0.1,0.8-0.3
			c0.2-0.2,0.3-0.5,0.3-0.8v-3.5c0-0.3-0.1-0.6-0.3-0.8s-0.5-0.3-0.8-0.3h-1.8c-0.3,0-0.6,0.1-0.8,0.3C22,52.7,21.9,52.9,21.9,53.3z
			"/>
		<path class="st1" d="M42.2,58.9h-3.5c-0.8,0-1.6-0.1-2.3-0.4s-1.3-0.6-1.8-1.1c-0.5-0.5-0.9-1.1-1.1-1.7c-0.3-0.7-0.4-1.4-0.4-2.2
			V41.6c0-0.8,0.1-1.5,0.4-2.2c0.3-0.7,0.6-1.2,1.1-1.7s1.1-0.9,1.8-1.1c0.7-0.3,1.5-0.4,2.3-0.4h7.8v1l-0.3,0.3h-7.5
			c-1.3,0-2.3,0.4-3,1.1c-0.7,0.7-1.1,1.8-1.1,3v3.7h7.7c0.8,0,1.6,0.1,2.3,0.4c0.7,0.3,1.3,0.6,1.8,1.1c0.5,0.5,0.9,1.1,1.1,1.7
			c0.3,0.7,0.4,1.4,0.4,2.2v2.7c0,0.8-0.1,1.5-0.4,2.2c-0.3,0.7-0.6,1.2-1.1,1.7c-0.5,0.5-1.1,0.9-1.8,1.1
			C43.8,58.8,43.1,58.9,42.2,58.9z M34.6,53.5c0,1.3,0.4,2.3,1.1,3c0.7,0.7,1.8,1.1,3,1.1h3.5c1.3,0,2.3-0.4,3-1.1s1.1-1.8,1.1-3
			v-2.7c0-1.3-0.4-2.3-1.1-3s-1.8-1.1-3-1.1h-7.7V53.5z"/>
		<path class="st1" d="M67.4,41.3v12.2c0,0.8-0.1,1.5-0.4,2.2c-0.3,0.7-0.6,1.2-1.1,1.7c-0.5,0.5-1.1,0.9-1.8,1.1s-1.5,0.4-2.3,0.4
			h-3.8c-0.8,0-1.6-0.1-2.3-0.4c-0.7-0.3-1.3-0.6-1.8-1.1c-0.5-0.5-0.9-1.1-1.1-1.7c-0.3-0.7-0.4-1.4-0.4-2.2V41.3
			c0-0.8,0.1-1.5,0.4-2.2c0.3-0.7,0.6-1.2,1.1-1.7c0.5-0.5,1.1-0.9,1.8-1.1c0.7-0.3,1.5-0.4,2.3-0.4h3.8c0.8,0,1.6,0.1,2.3,0.4
			c0.7,0.3,1.3,0.6,1.8,1.1s0.9,1.1,1.1,1.7C67.2,39.7,67.4,40.5,67.4,41.3z M53.8,41.3v12.2c0,1.3,0.4,2.3,1.1,3s1.8,1.1,3,1.1h3.8
			c1.3,0,2.3-0.4,3-1.1c0.7-0.7,1.1-1.8,1.1-3V41.3c0-1.3-0.4-2.3-1.1-3c-0.7-0.7-1.8-1.1-3-1.1h-3.8c-1.3,0-2.3,0.4-3,1.1
			S53.8,40,53.8,41.3z"/>
		<path class="st1" d="M74.5,57.7l-2-4.8h-0.1l-0.7,5.7h-1v-0.4l0.9-6.7h1.2l2.2,5H75l2.2-5h1.2l0.9,6.7v0.4h-1l-0.7-5.7h-0.1
			l-2,4.8H74.5z"/>
		<path class="st1" d="M85,52.8l-3.9,5.7h-1v-7.1h1v4.1L81,57.2h0.1l3.9-5.7h1v7.1h-1v-4.1L85,52.8L85,52.8z"/>
		<path class="st1" d="M88.1,58.6h-1v-7.1h1v3.1h3.8v-3.1h1v7.1h-1v-3.2h-3.8V58.6z"/>
	</g>
</g>
</svg>
