<?xml version="1.0" encoding="utf-8"?>
<!-- Generator: Adobe Illustrator 19.0.0, SVG Export Plug-In . SVG Version: 6.00 Build 0)  -->
<svg version="1.1" id="Слой_1" xmlns="http://www.w3.org/2000/svg" xmlns:xlink="http://www.w3.org/1999/xlink" x="0px" y="0px"
	 viewBox="0 0 103 103" style="enable-background:new 0 0 103 103;" xml:space="preserve">
<style type="text/css">
	.st0{fill:none;stroke:#FFFFFF;stroke-miterlimit:10;}
	.st1{fill:#FFFFFF;}
</style>
<g>
	<g>
		<circle class="st0" cx="51.5" cy="51.5" r="51"/>
		<circle class="st0" cx="51.5" cy="51.5" r="46"/>
	</g>
	<g>
		<path class="st1" d="M22.8,58.5l11.4-5.9v-0.2l-11.4-5.9v-1.4l13,6.7v1.4l-13,6.7V58.5z"/>
		<path class="st1" d="M52.1,38.2v15.5h3.2V55h-3.2v5.6h-1.4V55H38.5v-1.3l12-15.5H52.1z M50.5,40.3L40.2,53.5v0.2h10.4V40.3H50.5z"
			/>
		<path class="st1" d="M61.2,47.8H68c0.8,0,1.6,0.1,2.3,0.4c0.7,0.3,1.3,0.6,1.8,1.1s0.9,1.1,1.1,1.7c0.3,0.7,0.4,1.4,0.4,2.2v1.9
			c0,0.8-0.1,1.5-0.4,2.2c-0.3,0.7-0.6,1.2-1.1,1.7c-0.5,0.5-1.1,0.9-1.8,1.1c-0.7,0.3-1.5,0.4-2.3,0.4h-8.5v-1.3H68
			c1.3,0,2.3-0.4,3-1.1s1.1-1.8,1.1-3v-1.9c0-1.3-0.4-2.3-1.1-3c-0.7-0.7-1.8-1.1-3-1.1h-8.2V38.2h12.8v1l-0.3,0.3h-11V47.8z"/>
	</g>
</g>
</svg>
