<?xml version="1.0" encoding="utf-8"?>
<!-- Generator: Adobe Illustrator 19.0.0, SVG Export Plug-In . SVG Version: 6.00 Build 0)  -->
<svg version="1.1" id="Слой_1" xmlns="http://www.w3.org/2000/svg" xmlns:xlink="http://www.w3.org/1999/xlink" x="0px" y="0px"
	 viewBox="0 0 103 103" style="enable-background:new 0 0 103 103;" xml:space="preserve">
<style type="text/css">
	.st0{fill:none;stroke:#FFFFFF;stroke-miterlimit:10;}
	.st1{fill:#FFFFFF;}
</style>
<g>
	<g>
		<circle class="st0" cx="51.5" cy="51.5" r="51"/>
		<circle class="st0" cx="51.5" cy="51.5" r="46"/>
	</g>
	<g>
		<path class="st1" d="M39.3,43.3v12.2c0,0.8-0.1,1.5-0.4,2.2c-0.3,0.7-0.6,1.2-1.1,1.7c-0.5,0.5-1.1,0.9-1.8,1.1
			c-0.7,0.3-1.5,0.4-2.3,0.4h-3.8c-0.8,0-1.6-0.1-2.3-0.4c-0.7-0.3-1.3-0.6-1.8-1.1c-0.5-0.5-0.9-1.1-1.1-1.7
			c-0.3-0.7-0.4-1.4-0.4-2.2V43.3c0-0.8,0.1-1.5,0.4-2.2c0.3-0.7,0.6-1.2,1.1-1.7c0.5-0.5,1.1-0.9,1.8-1.1c0.7-0.3,1.5-0.4,2.3-0.4
			h3.8c0.8,0,1.6,0.1,2.3,0.4c0.7,0.3,1.3,0.6,1.8,1.1c0.5,0.5,0.9,1.1,1.1,1.7C39.1,41.7,39.3,42.5,39.3,43.3z M25.6,43.3v12.2
			c0,1.3,0.4,2.3,1.1,3c0.7,0.7,1.8,1.1,3,1.1h3.8c1.3,0,2.3-0.4,3-1.1c0.7-0.7,1.1-1.8,1.1-3V43.3c0-1.3-0.4-2.3-1.1-3
			c-0.7-0.7-1.8-1.1-3-1.1h-3.8c-1.3,0-2.3,0.4-3,1.1C26,41,25.6,42,25.6,43.3z"/>
		<path class="st1" d="M43.7,58h1.4v2.6h-1.4V58z"/>
		<path class="st1" d="M53.2,38.2v22.4h-1.4v-21h-4v-0.8l4.3-0.6H53.2z"/>
		<path class="st1" d="M66.9,44.9c0,1.1-0.4,2.1-1.1,2.8c-0.7,0.7-1.7,1.1-2.9,1.1h-1.3c-1.2,0-2.2-0.4-2.9-1.1s-1.1-1.6-1.1-2.8
			v-3.2c0-1.1,0.4-2.1,1.1-2.8c0.7-0.7,1.7-1.1,2.9-1.1h1.3c1.2,0,2.2,0.4,2.9,1.1c0.7,0.7,1.1,1.6,1.1,2.8V44.9z M58.9,41.7v3.2
			c0,1.8,0.9,2.7,2.7,2.7h1.3c1.8,0,2.7-0.9,2.7-2.7v-3.2c0-1.8-0.9-2.7-2.7-2.7h-1.3C59.9,39,58.9,39.9,58.9,41.7z M75.1,38.2h1.1
			v0.6L62.6,60.6h-1.1v-0.6L75.1,38.2z M80.1,57.1c0,1.1-0.4,2.1-1.1,2.8c-0.7,0.7-1.7,1.1-2.9,1.1h-1.3c-1.2,0-2.2-0.4-2.9-1.1
			c-0.7-0.7-1.1-1.6-1.1-2.8v-3.2c0-1.1,0.4-2.1,1.1-2.8s1.7-1.1,2.9-1.1h1.3c1.2,0,2.2,0.4,2.9,1.1s1.1,1.6,1.1,2.8V57.1z
			 M72.1,53.9v3.2c0,1.8,0.9,2.7,2.7,2.7h1.3c1.8,0,2.7-0.9,2.7-2.7v-3.2c0-1.8-0.9-2.7-2.7-2.7h-1.3C73,51.1,72.1,52,72.1,53.9z"/>
	</g>
</g>
</svg>
