<?xml version="1.0" encoding="utf-8"?>
<!-- Generator: Adobe Illustrator 19.0.0, SVG Export Plug-In . SVG Version: 6.00 Build 0)  -->
<svg version="1.1" id="Слой_1" xmlns="http://www.w3.org/2000/svg" xmlns:xlink="http://www.w3.org/1999/xlink" x="0px" y="0px"
	 viewBox="0 0 326.8 172.3" style="enable-background:new 0 0 326.8 172.3;" xml:space="preserve">
<style type="text/css">
	.st0{fill:#AC162C;}
	.st1{fill:#264C59;}
</style>
<g>
	<g>
		<rect x="92.4" y="114.5" class="st0" width="14.3" height="56.8"/>
		<path class="st0" d="M222.3,130.7c-0.6-0.3-5.2-3-12.1-3c-9.3,0-15.7,6.5-15.7,15.2c0,8.4,6.1,15.2,15.7,15.2
			c6.7,0,11.4-2.7,12.1-3v15.2c-1.8,0.5-6.7,2-13.1,2c-16.1,0-30.3-11.1-30.3-29.4c0-17,12.8-29.4,30.3-29.4c6.7,0,11.7,1.6,13.1,2
			V130.7z"/>
		<path class="st0" d="M72.7,130.7c-0.6-0.3-5.2-3-12-3c-9.3,0-15.7,6.5-15.7,15.2c0,8.4,6.2,15.2,15.7,15.2c6.7,0,11.4-2.7,12-3
			v15.2c-1.8,0.5-6.7,2-13.1,2c-16.1,0-30.2-11.1-30.2-29.4c0-17,12.8-29.4,30.2-29.4c6.7,0,11.7,1.6,13.1,2V130.7z"/>
		<path class="st0" d="M297.4,142.9c0,16.2-12.5,29.4-30,29.4c-17.5,0-30-13.2-30-29.4c0-16.2,12.5-29.4,30-29.4
			C284.9,113.5,297.4,126.6,297.4,142.9 M267.4,127.9c-8.5,0-14.8,6.7-14.8,14.9c0,8.3,6.3,14.9,14.8,14.9c8.5,0,14.8-6.7,14.8-14.9
			C282.2,134.6,275.9,127.9,267.4,127.9"/>
		<path class="st0" d="M161.1,127.4c-0.2-0.1-6.2-1.7-11.2-1.7c-5.7,0-8.9,1.9-8.9,4.7c0,3.5,4.2,4.7,6.6,5.4l4,1.3
			c9.3,3,13.5,9.3,13.5,16.2c0,14.3-12.5,19.1-23.5,19.1c-7.6,0-14.8-1.4-15.5-1.6v-13.1c1.3,0.3,7.3,2.1,13.5,2.1
			c7.1,0,10.4-2.1,10.4-5.3c0-2.9-2.8-4.5-6.4-5.7c-0.9-0.3-2.2-0.7-3.1-1c-8-2.5-14.6-7.2-14.6-16.6c0-10.6,7.9-17.8,21.2-17.8
			c7,0,13.5,1.7,14,1.8V127.4z"/>
		<path class="st1" d="M14.2,53.4c0-3.9-3.2-7.1-7.1-7.1c-3.9,0-7.1,3.2-7.1,7.1v14.9c0,3.9,3.2,7.1,7.1,7.1c3.9,0,7.1-3.2,7.1-7.1
			V53.4z"/>
		<path class="st1" d="M53.3,33.9c0-3.9-3.2-7.1-7.1-7.1c-3.9,0-7.1,3.2-7.1,7.1v34.5c0,3.9,3.2,7.1,7.1,7.1c3.9,0,7.1-3.2,7.1-7.1
			V33.9z"/>
		<path class="st1" d="M92.4,7.1c0-3.9-3.2-7.1-7.1-7.1c-3.9,0-7.1,3.2-7.1,7.1v75.4c0,3.9,3.2,7.1,7.1,7.1c3.9,0,7.1-3.2,7.1-7.1
			V7.1z"/>
		<path class="st1" d="M131.5,33.9c0-3.9-3.2-7.1-7.1-7.1c-3.9,0-7.1,3.2-7.1,7.1v34.5c0,3.9,3.2,7.1,7.1,7.1c3.9,0,7.1-3.2,7.1-7.1
			V33.9z"/>
		<path class="st1" d="M170.5,53.4c0-3.9-3.2-7.1-7.1-7.1c-3.9,0-7.1,3.2-7.1,7.1v14.9c0,3.9,3.2,7.1,7.1,7.1c3.9,0,7.1-3.2,7.1-7.1
			V53.4z"/>
		<path class="st1" d="M209.6,33.9c0-3.9-3.2-7.1-7.1-7.1c-3.9,0-7.1,3.2-7.1,7.1v34.5c0,3.9,3.2,7.1,7.1,7.1c3.9,0,7.1-3.2,7.1-7.1
			V33.9z"/>
		<path class="st1" d="M248.7,7.1c0-3.9-3.2-7.1-7.1-7.1c-3.9,0-7.1,3.2-7.1,7.1v75.4c0,3.9,3.2,7.1,7.1,7.1c3.9,0,7.1-3.2,7.1-7.1
			V7.1z"/>
		<path class="st1" d="M287.8,33.9c0-3.9-3.2-7.1-7.2-7.1c-3.9,0-7.1,3.2-7.1,7.1v34.5c0,3.9,3.2,7.1,7.1,7.1c4,0,7.2-3.2,7.2-7.1
			V33.9z"/>
		<path class="st1" d="M326.8,53.4c0-3.9-3.2-7.1-7.1-7.1c-3.9,0-7.1,3.2-7.1,7.1v14.9c0,3.9,3.2,7.1,7.1,7.1c3.9,0,7.1-3.2,7.1-7.1
			V53.4z"/>
		<polygon class="st0" points="318.6,163.8 318.6,164.7 316.1,164.7 316.1,171.3 315.1,171.3 315.1,164.7 312.5,164.7 312.5,163.8 
					"/>
		<polygon class="st0" points="319.2,163.8 320.8,163.8 323,169.9 323.1,169.9 325.2,163.8 326.8,163.8 326.8,171.3 325.8,171.3 
			325.8,165.1 325.7,165.1 323.5,171.3 322.5,171.3 320.3,165.1 320.2,165.1 320.2,171.3 319.2,171.3 		"/>
	</g>
</g>
</svg>
