<?xml version="1.0" encoding="utf-8"?>
<!-- Generator: Adobe Illustrator 19.0.0, SVG Export Plug-In . SVG Version: 6.00 Build 0)  -->
<svg version="1.1" id="Isolation_Mode" xmlns="http://www.w3.org/2000/svg" xmlns:xlink="http://www.w3.org/1999/xlink" x="0px"
	 y="0px" viewBox="0 0 155.7 50" style="enable-background:new 0 0 155.7 50;" xml:space="preserve">
<style type="text/css">
	.st0{fill-rule:evenodd;clip-rule:evenodd;fill:#C23232;}
</style>
<g>
	<path class="st0" d="M154.9,43.1c0.2,0.1,0.4,0.2,0.5,0.4c0.3,0.6,0.4,0.8,0.4,1c0,0.3-0.1,0.5-0.2,0.8c-0.1,0.3-0.3,0.4-0.6,0.5
		c0.2,0.1,0.4,0.3,0.5,0.4c0.1,0.2,0.2,0.5,0.2,0.9c0,0.6-0.1,1.2,0,1.3l-1.1,0l0-0.8l0-0.5c0-0.3-0.1-0.6-0.2-0.7
		c-0.1-0.1-0.3-0.2-0.7-0.2h-1.1v2.2h-1.1V43h2.5C154.4,43,154.7,43,154.9,43.1L154.9,43.1z M152.6,43.9v1.5h1.2
		c0.2,0,0.4,0,0.5-0.1c0.2-0.1,0.3-0.3,0.3-0.6c0-0.3-0.1-0.6-0.3-0.7c-0.1-0.1-0.3-0.1-0.5-0.1H152.6L152.6,43.9z M148.9,43h1.6
		v5.5h-1v-3.7l0-0.9l-1,4.6h-1.1l-1-4.6l0,0.9v3.7h-1V43h1.6l0.9,4.3L148.9,43L148.9,43z"/>
	<path class="st0" d="M58.6,43.6c-5.7-3.7-13.4-4.3-25.8-0.8c-13.2,3.1-17.7,5.1-23.5,1.1c-2.2-2-3-5.1-2.4-9.7
		c1.4-7.4,5.1-14.6,11.8-22.5c3.7-4.1,7.1-7.7,11.7-9.1c3.5-0.9,3.2,1.8,2.7,2.2c-0.4,0-1.2,0.1-1.8,0.4c-0.5,0.4-1.8,1.5-1.8,3.1
		c-0.1,2.4,2.4,1.9,3.5,0.6c1.2-1.5,2.9-4.4,1.5-7c-0.6-0.9-1.5-1.6-2.8-1.8c-4.2-0.2-8,1.7-11.6,3.9c-7.8,5.4-14.1,13-17.6,21.2
		c-2,5-3.9,12.1-1.1,17.9c2.1,4,6.6,6.2,11.9,5.7c3.7-0.4,8.2-1.6,11.2-2.3c3-0.7,18.5-6,23.6,3.2c0,0,1.7-3.3,5.9-3.3
		c3.5-0.3,8.5,1,12.1,3.7C64.9,48.1,61.5,45.4,58.6,43.6L58.6,43.6z"/>
	<path class="st0" d="M34.4,12.5c-2.9-1.9-8.7,1.7-13.4,8c-4.3,5.6-6.1,12.1-4.1,15.1c3,3.5,8.5-1.6,10.9-4.4l0.3-0.3
		c1.6-1.7,2.8-3.8,4-5.8c0,0,1.1-1.8,1.2-1.9c0.7-0.1,1.5-0.3,2.4-0.6c0,0-3.5,5.9-3.2,8.9c0.1,0.9,0,4.2,3.2,5.2
		c4.3,0.7,7.6-2.6,10.6-5.5c0,0,0.5-0.5,0.8-0.8c-0.1,0.3-0.2,0.7-0.2,0.7c-1.2,4.3,0.4,5.2,1.5,5.6c3.2,0.9,7-3.7,7-3.7
		c-0.1,1.5-0.4,2.7,1.1,3.6c1.4,0.5,2.9-0.3,4-1c4-2.8,7.2-7.3,9.8-11h-1.7c0,0-4.1,5.9-6.7,7.2c0,0-0.5,0.2-0.8,0
		c-0.3-0.3-0.2-0.9,0-1.4c0,0,10.2-17.8,10.2-17.8h-4.8c0,0-0.5,0.9-0.6,0.9c0,0-0.1-0.2-0.2-0.2c-3-4.1-9.8,2.2-14.8,9.6
		c-2,2.8-4.5,6-7,8.3c0,0-3.8,3.5-5.5,1c-0.6-1.1-0.4-2.6-0.1-3.6c1.9-5.4,5.2-10.4,8.9-13.3c1.1-0.8,2.2-1.1,2.8-0.7
		c0.5,0.3,0.6,1.1,0.3,1.7c-0.9,0-1.6,0.2-2.1,0.8c-1.1,1.2-1.5,2.3-1.2,3.4c1.7,2.5,5.2-2.4,5-5.4c-0.1-1.1-0.6-2.1-1.5-2.6
		c-1.3-0.8-3.2-0.6-4.4,0c-1.7,0.6-4.3,2.8-5.8,4.5c-1.9,2.1-5.3,4.5-6.3,4.2C34.5,20.4,37.3,14.7,34.4,12.5L34.4,12.5z M57.6,21
		c0.9-1.3,3.7-4.8,4.3-5.4c2.2-2,3.1-1.1,3.2-0.5c-2.1,3.7-4.6,8-6.9,11.9c0,0-0.7,1.1-0.7,1.1c-1,1.6-2.1,2.9-3.7,3.8
		c-0.2,0.1-0.6,0.1-0.9-0.1c-0.3-0.2-0.4-0.6-0.4-0.9C52.6,29.8,53.8,26.1,57.6,21L57.6,21z M31.4,23.3c0,0,0,0.1-0.1,0.2
		c0,0-2.1,3.4-2.1,3.4c-1.3,1.7-2.8,3.8-4.8,4.8c-0.6,0.2-1.4,0.3-1.8-0.2c-0.9-1-0.4-2.5-0.1-3.7l0.1-0.4c1-2.8,2.7-5.4,4.3-7.7
		c0,0,0.1,0,0.1,0c0,0,0,0,0,0c1,2,2.9,2.9,4.3,3.3c0,0,0,0,0,0C31.5,23.1,31.4,23.1,31.4,23.3L31.4,23.3z M33.4,19.2
		c0,0-0.9,2.1-0.9,2.1c-0.1,0.1-0.3,0.1-0.6,0l-0.4-0.1c-1.3-0.4-2.3-1.3-2.6-2.3c-0.4-2,1.3-3.6,2.1-4.2c0.7-0.5,1.9-0.8,2.5-0.3
		c0.4,0.5,0.6,1.1,0.6,1.8C34,17.3,33.7,18.3,33.4,19.2L33.4,19.2z"/>
	<path class="st0" d="M94.3,25.7c-0.5-1-1.6-1.6-2.7-1.6c-3.8,0.3-7.6,3.5-9.5,8c-1,2.3-1.6,4.2-2,7.3c1.2-1.4,3.6-3.6,6.4-4.8
		c0,0,0.4-2.9,2.3-5.5c0.7-1.1,2.2-2.8,3.8-2.3c1.4,0.5,0.9,4.4-1,8.2c-1.4,2.8-3.5,5.6-5.7,7.5C84,44,81.1,46,78.7,44.5
		c-1.6-0.9-2.3-2.8-2.2-5.3c0.7-7,4-13.1,8.5-19.9c4.7-6.4,10-12.9,17-16.3c1.4-0.7,2.8-0.9,3.9-0.4c0,0-6.6,3.6-9.7,10.3
		c-0.8,1.7-1.9,4-0.8,6c0.6,1.1,1.6,1.1,2.5,1.1c3.9-0.9,6.3-4.5,8.4-7.8c1.2-2.5,2.2-5,2.2-7.7c0-0.3,0-0.8,0-1.1
		c1.8-1,5.6,0.8,5.6,0.8c3,1,9.2,5.8,11.4,6.7c1-1.2,2.7-3,3.7-3.9L127.7,6c-2.2-1.4-4.6-2.6-6.9-3.9c-5.2-2.9-9.5-1.9-11.7-1.1
		c-0.9,0.3-1.6,0.6-1.6,0.6c-1.6-1.8-4.3-1.6-6.2-1.1c-7,2-13.5,6.9-20.5,15.4c-5.1,6.7-8.3,12.4-10,18.1c-1.3,3.8-1.7,9.5,1.5,12.8
		c2.7,2.8,6.3,2.2,8.8,1.2c5.5-2.7,10.4-8.5,12.9-15.3C94.7,30.7,95.3,27.9,94.3,25.7L94.3,25.7z M107,4.7
		c-0.7,8.3-7.2,13.2-8.8,13.6c-1,0.2-2.6-0.2-1.2-3.7c2.2-4.7,5.9-8.7,9.9-10.8C107,4.1,107,4.4,107,4.7L107,4.7z"/>
	<path class="st0" d="M145.4,5.7c-3.5,2-7.1,3.3-11.5,2.8c-1.2,1.4-2.4,2.8-3.5,4.2c6.1,1.6,12.7-1.9,16.3-5.2
		c3.8-3.3,5.8-7.5,5.8-7.5S149.7,3.3,145.4,5.7L145.4,5.7z"/>
	<polygon class="st0" points="79.5,12.6 74.9,12.6 72.3,17 76.9,17 79.5,12.6 	"/>
	<path class="st0" d="M133.9,44c-0.5,0.3-1.2,0.1-0.9-0.7c0.6-2,3.2-6,3.2-6l7.1-12.7h-4.9c-0.2,0.4-0.7,1.3-0.7,1.3
		c-0.2-0.4-0.9-1.2-1.2-1.4c-1.2-0.8-2.9-0.4-4.2,0.3c-5.3,3.1-9.1,9.1-12.1,13.9c0,0-3.2,5.3-4.9,5.7c-1.4,0.1-1.2-1.7-1.2-2.2
		c0.5-3.1,1.8-6.1,3-8.8c2.5-1.8,5.4-4.1,8.1-6.6c5.7-5.5,10.5-11.6,11.2-13c0,0-0.8,0.2-1.7,0.2c-4.4,6.1-13.4,15-16.1,16.4
		c1.2-2.9,9-16.8,15.6-23.4l1-1c1.6-1.6,3.3-3.2,4.6-3.5c0.1,0,0.3,0,0.5,0.3c0.1,1.2-0.4,2.1-0.9,3.2l-0.7,1.5c0,0,1-0.2,1.7-0.4
		c0.8-1.5,1.7-3.2,1.3-5.2c-0.1-0.6-0.6-1.1-1.2-1.2c-2-0.4-4.1,1.1-5.9,2.3l-0.1,0c-8.9,7-16.5,17.1-23.1,30.8
		c-0.5,0.4-2.3,0.8-2.6,0.6c0.7-1.3,1.5-3.1,1.9-5.1c0.1-0.6,0.1-1.1,0.1-1.7c0-1.2-0.3-2.3-1.4-3.1c-1.3-0.6-2.8-0.3-3.9,0.1
		c-4.7,2-8.2,6.8-10.8,10.8c-1.4,2.5-2.7,5.2-3.1,8.3c-0.3,2.4,0.3,4,1.7,4.8c1.4,0.7,3.2,0,3.9-0.4c4.8-2.5,8.1-7.6,10.7-12.2
		c0.1,0,1.5-0.1,2.6-0.3c0,0,0,0,0,0c-0.1,0.2-0.6,1.9-0.6,1.9c-1.7,4.9-2.4,8.2-0.9,10.2c2.2,2.8,6-0.1,9-3.9
		c-0.6,4.6,1.7,5.3,3.5,4.9c2.1-0.6,4.4-2.8,5.4-3.9c-0.3,1.3-0.2,3.7,1.6,3.9c1.3,0.2,2.3-0.4,3.4-1c4-2.2,8.8-9.5,10-11.5h-1.6
		C139,38.8,136.8,42.4,133.9,44L133.9,44z M98,43.5c-0.3-0.4-0.3-0.8-0.3-1.3c0-2.7,2.9-7.6,5-10.3c0,0,0,0,0,0c0.9,2,2.8,3.2,4,3.7
		C105.2,38.9,100.2,45.9,98,43.5L98,43.5z M107.5,34.1c-0.1,0.1-2.6-0.7-3.1-3c-0.4-2,1-3.5,2.3-4.3c0.6-0.4,1.4-0.6,2-0.4
		c0.6,0.4,0.7,1.1,0.7,1.8c0,0.5-0.1,0.9-0.1,1.4c0,0,0,0.1,0,0.1C109,31.2,108.3,32.8,107.5,34.1L107.5,34.1z M127.5,42.6
		c0,0-0.5,0.4-0.5,0.4c-0.7,0.6-1.4,1.2-2.2,0.9c-0.2-0.1-0.4-0.4-0.4-0.6c0-1.7,0.7-3.3,1.5-4.9l0.2-0.4c2.2-3.6,4.7-7.8,8.3-10.8
		c0.6-0.4,1.3-0.8,2-0.5c0.2,0.2,0.4,0.4,0.4,0.7c0,0.1-0.1,0.3-0.1,0.4c-1,1.7-2,3.4-3,5.1C131.8,36.2,129.9,39.6,127.5,42.6
		L127.5,42.6z"/>
</g>
</svg>
