<?xml version="1.0" encoding="utf-8"?>
<!-- Generator: Adobe Illustrator 19.0.0, SVG Export Plug-In . SVG Version: 6.00 Build 0)  -->
<svg version="1.1" id="Слой_1" xmlns="http://www.w3.org/2000/svg" xmlns:xlink="http://www.w3.org/1999/xlink" x="0px" y="0px"
	 viewBox="0 0 147.2 55.7" style="enable-background:new 0 0 147.2 55.7;" xml:space="preserve">
<style type="text/css">
	.st0{fill-rule:evenodd;clip-rule:evenodd;fill:#2A5C98;}
	.st1{fill-rule:evenodd;clip-rule:evenodd;fill:#FFFFFF;}
</style>
<g>
	<path class="st0" d="M73.6,55.7c40.6,0,73.6-12.4,73.6-27.8C147.2,12.5,114.2,0,73.6,0C32.9,0,0,12.5,0,27.9
		C0,43.2,32.9,55.7,73.6,55.7L73.6,55.7L73.6,55.7L73.6,55.7z"/>
	<path class="st1" d="M73.6,52.8c-39,0-70.7-11.1-70.7-25C2.9,14,34.6,2.8,73.6,2.8c39.1,0,70.8,11.2,70.8,25.1
		C144.4,41.7,112.7,52.8,73.6,52.8L73.6,52.8L73.6,52.8L73.6,52.8z"/>
	<path class="st0" d="M73.6,50.9c37.8,0,68.5-10.3,68.5-23c0-12.7-30.7-23-68.5-23c-37.9,0-68.5,10.3-68.5,23
		C5.1,40.6,35.7,50.9,73.6,50.9L73.6,50.9L73.6,50.9L73.6,50.9z"/>
	<path class="st1" d="M91.6,32.5c3.2-3,5-6.2,9.7-6.2c2.8,0,3.5,2.3,4,3.2l0,0l6.1-10.3h3.8l-10.2,18l0,0c-0.2,0.4-0.7,1.1-0.6,1.7
		c0.1,0.9,1.2,0.7,0.8,0.7c2-0.1,5.8-4,6.7-4.9c0.2-0.2,0.5-0.7,0.7-0.7c0.2,0,0.6,0.2,0.6,0.5c0,0.2-0.4,0.9-0.8,1.3
		c-1.9,2.4-5,6-8.6,6.1c-1.8,0-2.4-0.7-2.7-2.1c-0.8,0.7-3.6,1.9-6.4,1.9c-2.3,0-3.3-1.4-3.8-2.5c-0.4-0.9-0.6-2.2-0.3-3.6
		c-1.3,0.7-2.5,0.8-4.2,0.7c-2,0-3.2-0.9-3.8-3.3c-2.3,4.2-2.4,4.3-4.7,8.7l0,0h-4l5.2-8.8l0,0c0.7-1.2,1-2.1,1.2-3.1
		c0.1-0.6-0.3-1.1-0.9-1.1c-0.7,0-1.8,0.7-2.8,1.7c0,0-2.7,2.8-4.6,5.7c-1.9,2.8-5,5.9-8.5,5.9c-2.5,0-4.8-1.4-5.3-4
		c0,0-0.2,0.6-2.5,1.9c-0.2,0.1-0.7,0.4-0.8,0.3c-0.4-0.4-0.7-0.9-0.7-1.2c0.1,0,0.4-0.2,1.3-0.9c1.8-1.3,2.1-2.4,2.1-2.4
		c0.4-0.9,1.2-2.3,1.7-3.3c1.4-2.8,3.9-5.7,7.9-5.9c0.7,0,0.9,0.3,1,0.5c0.4,0.3,0.2,0.9,0.2,0.9c-2.8,0.4-4.8,2.1-6,3.7
		c-0.7,1-1.5,2.8-1.6,4c-0.3,2.1,0.7,3.6,2.2,3.9c2.8,0.4,5-1.6,6.8-4.7c0.5-0.8,0.8-2.9,0.8-4c0-1.1-0.6-2.3-1.1-2.8
		c0-0.8,0.5-1.3,1.1-1.3c0.2,0,0.4,0,0.6,0.2c0.9,0.9,1.5,2.8,1.5,4.1c0,0.5,0,0.9-0.1,1.4c2-2.4,4.5-5.6,6.5-6.2
		c0.4-0.2,0.8-0.2,1.1-0.2c3.6-0.1,3.1,3.1,3.1,3.1c1.9-2.2,3.2-3,5-2.9c1.9,0.1,2.6,1.4,2.6,2.5c0,1.2-0.9,2.7-2.5,2.7
		c-1.4,0-2.2-0.7-2.6-1.9c-0.9,0.3-1.3,0.9-1.5,2.2c-0.3,1.6,0.9,2.8,2.4,2.8C89.5,34.5,90.6,33.3,91.6,32.5L91.6,32.5L91.6,32.5
		L91.6,32.5z"/>
	<path class="st1" d="M94.4,12c0,1.5-5.3,4.4-9.8,4.4c-7,0-14.3-3.4-17.7-4.1c-3.7-0.9-7-1.6-9.6-1.6c-9.2,0-13.2,3.9-13.1,7.5
		c0.1,1.5,1.3,2.4,3,2.1c1.9-0.3,4.6-2.1,5.2-3.7c0.1-0.3,0.5-0.4,0.7-0.3c0.3,0.2,0.2,0.6,0.2,0.6c-0.2,1.9-3.1,7-8,7
		c-2.8,0-4.6-2.6-4.6-5.1c0-4.7,4.8-9.4,16.7-9.4c2.2,0,4.7,0.2,7.5,0.7c3.2,0.6,11.1,1.9,17.6,2c2.4,0,5.4,0.1,7.9-0.3
		c2.6-0.4,2-0.5,3.1-0.5C94.4,11.2,94.4,11.6,94.4,12L94.4,12L94.4,12L94.4,12z"/>
	<path class="st0" d="M101.4,28.5c-1.7-0.2-3.8,1.2-5.5,3.3c-0.9,1-1.8,3-1.9,4.2c-0.2,1.2,0.1,2.4,0.6,2.7c0.4,0.3,2.3,1.3,5.3-1.7
		c1.7-1.7,3.3-4.4,3.3-4.4l0,0l-0.5-0.1l0,0C103.7,30.8,103.5,28.8,101.4,28.5L101.4,28.5L101.4,28.5L101.4,28.5z"/>
	<path class="st1" d="M66.7,22.9c0,0.5,0.7,0.9,1.3,1c-0.1,0.5-0.1,0.8-0.3,0.7c-1.4,0-2-1.4-2-1.4c-1.9,0.3-3.7,0.6-7.5,0.9
		C48.8,39.5,45.9,42,40.1,42c-4.1,0-7.8-2.7-7.9-7.5c0-2.9,2.3-6.6,6.7-7.6c0.5,0,0.7,0.2,0.7,0.5c0,0.2-0.2,0.4-0.6,0.6
		c-1.3,0.5-3.5,3-3.5,5.3c0,1.8,1.1,3.7,2.9,4.1c0.5,0.1,1,0.1,1.5,0.1c4.6,0,9.8-5.2,15.4-13.1c-0.9,0-4.7,0.5-5.7,1.6
		c-0.4,0.3-0.7,0.1-0.8-0.2c0-0.1,0.1-0.4,0.3-0.6c1.5-1.7,6.1-2.1,7.2-2.2c4.3-6.5,9.8-10.6,10.9-10.6c0.2,0,0.6,0.3,0.4,0.8
		c0,0.1-0.5,0.6-0.7,0.8c-0.9,0.9-4.2,2.9-7.7,8.9c2.8-0.1,6.2-0.7,6.2-0.7s-0.2-0.6-0.2-1.1c0.1-2,1.3-3.3,2.8-3
		c0.9,0.1,1.4,0.9,1.4,1.6c0,0.8-0.6,2-1.2,2.6C67.8,22.3,67.3,22.6,66.7,22.9L66.7,22.9L66.7,22.9L66.7,22.9z"/>
	<path class="st0" d="M66.5,21.9c0,0,0.5,0,1.2-0.8c0.3-0.3,0.8-1.1,0.7-1.7c0-0.3-0.2-0.6-0.5-0.6c-0.7,0.1-1.1,0.5-1.3,1.2
		C66.3,20.8,66.4,21.3,66.5,21.9L66.5,21.9L66.5,21.9L66.5,21.9z"/>
</g>
</svg>
