<?xml version="1.0" encoding="utf-8"?>
<!-- Generator: Adobe Illustrator 19.0.0, SVG Export Plug-In . SVG Version: 6.00 Build 0)  -->
<svg version="1.1" id="Слой_1" xmlns="http://www.w3.org/2000/svg" xmlns:xlink="http://www.w3.org/1999/xlink" x="0px" y="0px"
	 viewBox="0 0 174.3 58.8" style="enable-background:new 0 0 174.3 58.8;" xml:space="preserve">
<style type="text/css">
	.st0{fill-rule:evenodd;clip-rule:evenodd;fill:#6D6E70;}
	.st1{fill-rule:evenodd;clip-rule:evenodd;fill:#E64138;}
	.st2{fill-rule:evenodd;clip-rule:evenodd;fill:#41AA58;}
	.st3{fill-rule:evenodd;clip-rule:evenodd;fill:#1474B6;}
	.st4{fill-rule:evenodd;clip-rule:evenodd;fill:#FFDE1D;}
</style>
<g>
	<path class="st0" d="M169.6,13.8h1.1c0,0,0,0,0,0c0.2,0.4,0.4,0.8,0.5,1.2c0.2,0.4,0.3,0.9,0.5,1.3c0,0,0,0,0,0
		c0.1-0.3,0.4-0.8,0.5-1.1c0.1-0.3,0.3-0.6,0.4-0.9c0.1-0.1,0.1-0.1,0.1-0.2c0-0.1-0.1-0.1-0.2-0.1l-0.4,0l0.4-0.3h1.5l-0.1,0.1
		c-0.1,0.1-0.2,0.2-0.2,0.3c0,0.1,0,0.1,0,0.2c0,0.3,0.1,0.6,0.1,0.9c0,0.4,0.1,0.8,0.1,1.1c0.1,0.3,0.1,0.4,0.3,0.6
		c-0.2,0-0.4,0.1-0.6,0.1c-0.1,0-0.3,0-0.4-0.1c-0.2-0.1-0.2-0.4-0.2-0.8c0-0.3-0.1-0.6-0.1-0.8c0-0.3,0-0.5-0.1-0.8l0-0.1l0,0.1
		c-0.2,0.3-0.3,0.7-0.5,1c-0.4,0.8-0.4,0.9-0.5,1.1l0,0.1c-0.1,0-0.6,0.2-0.8,0.3c-0.1-0.4-0.7-1.7-1.1-2.6c0,0.4-0.1,0.8-0.1,1.1
		c0,0.1-0.1,1-0.1,1.1c0,0.1,0,0.1,0.2,0.1l0.4,0.1l-0.2,0.1h-0.8l0.1-0.1c0,0,0-0.1,0.1-0.1c0-0.1,0-0.2,0.1-0.4
		c0-0.3,0.1-0.5,0.1-0.8c0-0.2,0.1-1,0.1-1.2c0,0,0-0.1,0-0.1c0-0.1,0-0.2-0.2-0.2c-0.1,0-0.4,0-0.4,0L169.6,13.8L169.6,13.8z"/>
	<path class="st0" d="M169.4,13.8l-0.2,0.5l-0.2,0.1c0,0,0-0.2,0-0.2c0-0.1-0.1-0.1-0.2-0.1l-0.6,0c-0.1,1.8-0.1,1.9-0.1,2.2
		c0,0.1,0,0.2,0,0.4c0,0.2,0.1,0.2,0.3,0.2l0.4,0l-0.3,0.1H167l0.1-0.1c0.1-0.1,0.1-0.2,0.1-0.3c0-0.1,0-0.6,0-0.7
		c0-0.2,0-0.4,0-0.6c0-0.4,0-0.8,0-1.2c0-0.1,0-0.1,0-0.2h-0.6c-0.3,0-0.3,0-0.4,0.2l-0.2,0.1l0.2-0.6H169.4L169.4,13.8z"/>
	<path class="st1" d="M163.5,39.6c-0.6,0.3-1.3,0.8-1.9,1c-1.9,0.9-3.9,1.1-5.6,1.1c-1.9,0-4.8-0.1-7.7-2.3
		c-4.1-2.9-5.9-7.9-5.9-12.2c0-9,7.3-13.4,13.3-13.4c2.1,0,4.2,0.5,6,1.6c2.9,1.9,3.6,4.4,4.1,5.7l-13.6,5.5l-4.5,0.3
		c1.4,7.4,6.4,11.6,11.9,11.6c3,0,5.1-1,7.1-2L163.5,39.6L163.5,39.6z M158.1,22.4c1.1-0.4,1.7-0.8,1.7-1.6c0-2.3-2.6-5-5.7-5
		c-2.3,0-6.7,1.8-6.7,8.1c0,1,0.1,2,0.2,3.1L158.1,22.4L158.1,22.4z"/>
	<path class="st2" d="M141,40.9h-10.3c1.3-1.7,1.6-1.9,1.6-3.1v-9.4c0-4.5,0.1-10.9,0.2-17c0.1-3,0.3-6.7,0.3-9.3h-4.5l4.3-2.1h8.3
		c-1.8,1-2.4,1.4-2.6,3.4c-0.5,4.5-0.5,11.5-0.5,19.8v13.4c0,2.3,0.4,2.6,2.3,2.8c1,0.1,2,0.2,3,0.3L141,40.9L141,40.9z"/>
	<path class="st3" d="M122,16.7c1.3,1.1,4.1,3.4,4.1,7.8c0,4.3-2.4,6.3-4.9,8.2c-0.8,0.8-1.6,1.6-1.6,2.8c0,1.3,0.9,2,1.5,2.5
		l2.1,1.6c2.6,2.1,4.9,4.1,4.9,8.1c0,5.4-5.3,10.9-15.2,10.9c-8.4,0-12.5-4-12.5-8.3c0-2.1,1-5,4.5-7.1c3.6-2.2,8.5-2.5,11.1-2.7
		c-0.8-1-1.7-2.1-1.7-3.9c0-1,0.3-1.6,0.6-2.3c-0.6,0.1-1.3,0.1-1.9,0.1c-6.1,0-9.6-4.6-9.6-9.1c0-2.7,1.2-5.6,3.7-7.8
		c3.3-2.7,7.2-3.2,10.4-3.2h11.9l-3.7,2.1H122L122,16.7z M117.9,42.5c-0.5-0.1-0.8-0.1-1.3-0.1c-0.5,0-3.7,0.1-6.1,0.9
		c-1.3,0.5-5,1.9-5,6c0,4.1,4,7.1,10.2,7.1c5.6,0,8.5-2.7,8.5-6.3C124.2,47.2,122.3,45.6,117.9,42.5L117.9,42.5z M119.6,31.5
		c1.3-1.3,1.4-3.2,1.4-4.2c0-4.2-2.5-10.7-7.3-10.7c-1.5,0-3.1,0.8-4.1,1.9c-1,1.2-1.3,2.8-1.3,4.3c0,3.9,2.3,10.3,7.2,10.3
		C117.1,33.1,118.6,32.4,119.6,31.5L119.6,31.5z"/>
	<path class="st4" d="M86.1,41.7c-9.2,0-14.1-7.2-14.1-13.7c0-7.6,6.2-14.1,15-14.1c8.5,0,13.8,6.7,13.8,13.7
		C100.8,34.4,95.5,41.7,86.1,41.7L86.1,41.7z M93.3,37c1.4-1.9,1.7-4.2,1.7-6.4c0-5.1-2.4-14.8-9.6-14.8c-1.9,0-3.8,0.8-5.2,2
		c-2.3,2-2.7,4.6-2.7,7.1c0,5.7,2.8,15.2,9.8,15.2C89.7,39.9,92,38.8,93.3,37L93.3,37z"/>
	<path class="st1" d="M55.2,41.7c-9.2,0-14.1-7.2-14.1-13.7c0-7.6,6.2-14.1,15-14.1c8.5,0,13.8,6.7,13.8,13.7
		C70,34.4,64.7,41.7,55.2,41.7L55.2,41.7z M62.5,37c1.4-1.9,1.7-4.2,1.7-6.4c0-5.1-2.4-14.8-9.6-14.8c-1.9,0-3.8,0.8-5.2,2
		c-2.3,2-2.7,4.6-2.7,7.1c0,5.7,2.8,15.2,9.8,15.2C58.8,39.9,61.2,38.8,62.5,37L62.5,37z"/>
	<path class="st3" d="M37.4,39.6l-7.8,1.8c-3.2,0.5-6,0.9-9,0.9C5.7,42.3,0,31.3,0,22.7C0,12.1,8.1,2.4,21.9,2.4
		c2.9,0,5.8,0.4,8.3,1.1c4.1,1.1,6,2.6,7.2,3.4l-4.5,4.3L31,11.6l1.4-2.2c-1.8-1.8-5.2-5.1-11.6-5.1c-8.6,0-15,6.5-15,16
		c0,10.2,7.4,19.8,19.2,19.8c3.5,0,5.3-0.7,6.9-1.4v-8.7l-8.2,0.4l4.3-2.3h11.5l-1.4,1.4c-0.4,0.3-0.4,0.4-0.5,0.9
		c-0.1,0.5-0.1,2.1-0.1,2.6V39.6L37.4,39.6z"/>
</g>
</svg>
