<?xml version="1.0" encoding="utf-8"?>
<!-- Generator: Adobe Illustrator 19.0.0, SVG Export Plug-In . SVG Version: 6.00 Build 0)  -->
<svg version="1.1" id="Слой_1" xmlns="http://www.w3.org/2000/svg" xmlns:xlink="http://www.w3.org/1999/xlink" x="0px" y="0px"
	 viewBox="0 0 108 43.2" style="enable-background:new 0 0 108 43.2;" xml:space="preserve">
<style type="text/css">
	.st0{fill:#2C6EB1;}
</style>
<path class="st0" d="M0,0v3h21V0H0z M24,0v3h30c0,0-3.1-3-7.1-3H24z M59.8,0v3H78l-1.1-3H59.8z M91,0l-1.1,3h18V0H91z M0,5.7v3h21
	v-3H0z M24,5.8v3h33.4c0,0-0.4-2.3-1.1-3H24z M59.8,5.8v3H80l-1-3H59.8z M88.8,5.8l-1,3h20v-3H88.8z M6,11.5v3h9.1v-3H6z M30,11.5v3
	h9.1v-3H30z M48,11.5v3h9.1c0,0,0.6-1.6,0.6-3H48z M65.9,11.5v3H82l-1.1-3H65.9z M86.8,11.5l-1.1,3H102v-3H86.8z M6,17.3v3h9.1v-3H6
	z M30,17.3v3h23.3c0,0,1.9-1.5,2.6-3H30z M65.9,17.3v3H75v-1.6l0.6,1.6h16.7l0.6-1.6v1.6h9.1v-3H84.9L84,19.8l-0.9-2.5H65.9z M6,23
	v3h9.1v-3H6z M30,23v3h25.8c-0.6-1.4-2.6-3-2.6-3H30z M65.9,23v3H75v-3H65.9z M76.6,23l1.1,3h12.5l1-3H76.6z M92.9,23v3h9.1v-3H92.9
	z M6,28.7v3h9.1v-3H6z M30,28.7v3h9.1v-3H30z M48,28.7v3h9.7c0-1.4-0.6-3-0.6-3H48z M65.9,28.7v3H75v-3H65.9z M78.7,28.7l1.1,3h8.4
	l1.1-3H78.7z M92.9,28.7v3h9.1v-3H92.9z M0.2,34.5v3h21v-3H0.2z M24,34.5v3h32.4c0.7-0.7,1.1-3,1.1-3H24z M60,34.5v3h15v-3H60z
	 M80.8,34.5l1.1,3h4.3l1-3H80.8z M92.9,34.5v3H108v-3H92.9z M0.2,40.3v3h21v-3H0.2z M24,40.3v3h22.8c4.1,0,7.1-3,7.1-3H24z M60,40.3
	v3h15v-3H60z M82.9,40.3l1.1,2.9l0.2,0l1.1-3H82.9z M92.9,40.3v3H108v-3H92.9z"/>
</svg>
