<?xml version="1.0" encoding="utf-8"?>
<!-- Generator: Adobe Illustrator 19.0.0, SVG Export Plug-In . SVG Version: 6.00 Build 0)  -->
<svg version="1.1" id="Слой_1" xmlns="http://www.w3.org/2000/svg" xmlns:xlink="http://www.w3.org/1999/xlink" x="0px" y="0px"
	 viewBox="0 0 336.3 221.7" style="enable-background:new 0 0 336.3 221.7;" xml:space="preserve">
<style type="text/css">
	.st0{fill-rule:evenodd;clip-rule:evenodd;fill:#0074B7;}
</style>
<g>
	<path class="st0" d="M0,130v9c0,15.8,6.3,29.9,12.7,39.5c7.2,10.8,16.9,17.3,27.9,24.2c8.7,5.5,26.3,11.6,38.2,13.9
		c14.7,2.9,29.4,5.1,47.1,5.1h8.7c54.2,0,109.2-15.7,144.6-34.5v-25.5c-9.6,5.1-21.4,11.8-32.5,15.2c-2.4,0.7-6.1,2.3-8.5,3.2
		c-3,1.1-6,1.9-9,3c-4.5,1.8-13.5,4.2-18.6,5.3c-6.4,1.4-12.6,3.1-19.3,4.5c-7,1.4-13.2,2.1-20.4,3.4c-6.7,1.2-14.6,1.6-21.7,2.1
		c-7.5,0.5-15.2,0.8-23.3,0.8h-1.7c-28.7,0-56.1-4.5-75.3-14.1c-18.4-9.2-35.7-26.3-35.7-53.7v-2.5c0-12.9,4-22.8,7.7-32.1
		c1.6-4.1,4.7-9.3,7.1-12.8c1.5-2.2,2.7-3.8,4.2-5.9c1.4-1.9,3.5-3.9,4.6-5.5v-9c-4.5,3-9.2,8.9-13,12.8c-4.3,4.5-7.5,9.5-11,14.7
		C7.5,99,0,117.2,0,130L0,130z"/>
	<path class="st0" d="M336.3,81.6v-8.1c-0.1-0.1-1.3-9.1-1.5-10.3c-0.5-2.9-1.6-6.7-2.6-9.2c-2.5-6.2-4.6-10.4-8.4-15.4
		c-7-9.2-15.3-15.8-25.8-21.6C278.9,6.4,249.7,0,220,0h-2.5c-30.7,0-56.1,5.1-80,11.9c-6.3,1.8-11.5,3.6-17.4,5.6
		c-4.9,1.6-12,4.3-16.5,6.5c-5.2,2.6-10.5,4.8-15.6,7.4c-2.7,1.3-13.2,7.7-14.9,8.1v6.7c2.3-0.5,10.8-5.2,14.1-6.6
		c4.5-1.9,10.2-4.8,14.8-6.2c2.1-0.6,5.5-1.9,7.6-2.8c2.5-1.1,5.1-1.7,7.8-2.6c5.1-1.7,10.7-3.6,16.1-5c11.5-2.9,21.7-5.2,34.3-7.5
		c10.7-1.9,25.9-3.8,38-3.8h12.6c24.6,0,51.1,5.6,66.9,14.4c9.6,5.3,16,9.8,22.6,18.1c5,6.2,11.2,18.7,11.2,29.8v4.8
		c0,11.6-6,24.2-11.1,30.9c-3.1,4.1-6.1,7.8-9.9,11.2c-1.8,1.6-10.4,8.4-12.4,8.9v18.5c4-0.3,15.8-8,18.9-10.3
		c5.6-4.2,10.7-9,15-14.5c4.9-6.2,7.5-10.8,11.1-18.4c1.6-3.4,2.5-7,3.7-10.9C334.7,92.8,336.3,81.6,336.3,81.6L336.3,81.6z"/>
	<path class="st0" d="M185.3,112.7v3.4c0,19.3,11.8,33.4,31.1,33.4h3.6c5.8,0,10-1.4,14.2-3.2c4.5-1.9,6.9-5.2,10.3-7.5l-11-10.3
		c-2.2,3.2-8.2,6.4-13.7,6.4h-3.1c-7.3,0-14-6.2-14-13.2v-2h43.7v-7.6c0-8.9-3.2-17.5-7.1-22.6c-3.7-4.9-11.2-10.4-19.5-10.4h-5.3
		c-8.8,0-16.8,5.5-21.1,10.3C188.9,94.2,185.3,103.4,185.3,112.7L185.3,112.7z M202.6,105.9v2H229v-1.4c0-7-5-13.2-12.3-13.2h-1.4
		C208.8,93.3,202.6,99.6,202.6,105.9L202.6,105.9z"/>
	<path class="st0" d="M81.8,148.3h17.1V94.2h15.4c3.4,0,6.2,2.6,6.2,5.9v48.2h17.4v-47.9c0-11.4-7.7-20.2-19.1-20.2h-37V148.3
		L81.8,148.3z"/>
	<path class="st0" d="M150.5,128.1c0,11.5,7.5,20.2,18.8,20.2H181v-14.6h-8.7c-2.6,0-4.5-3-4.5-5.6V94.2H181v-14h-13.2V61.4h-17.4
		V128.1L150.5,128.1z"/>
	<path class="st0" d="M256.4,131.7c0,4.7,2.8,8.9,5.3,11.3c1.3,1.3,3.4,2.4,5.3,3.1c2.7,1.1,4.1,0.9,6.8,1.6V51.8h-17.4V131.7
		L256.4,131.7z"/>
	<path class="st0" d="M48.7,96.1l0.1,33.9c0,11.5,6.7,18.8,17.7,19.1V80.2l-17.3,0L48.7,96.1L48.7,96.1z"/>
	<polygon class="st0" points="49,70.6 66.4,70.6 66.4,54.1 49,54.1 49,70.6 	"/>
	<path class="st0" d="M292.6,51.8c1.2,0,2.3,0.3,3.4,0.9c1.1,0.6,2,1.5,2.6,2.6c0.6,1.1,0.9,2.3,0.9,3.5c0,1.2-0.3,2.4-0.9,3.5
		c-0.6,1.1-1.5,2-2.6,2.6c-1.1,0.6-2.3,0.9-3.5,0.9c-1.2,0-2.4-0.3-3.5-0.9c-1.1-0.6-2-1.5-2.6-2.6c-0.6-1.1-0.9-2.3-0.9-3.5
		c0-1.2,0.3-2.4,0.9-3.5c0.6-1.1,1.5-2,2.6-2.6C290.3,52.1,291.4,51.8,292.6,51.8L292.6,51.8z M292.6,52.9c-1,0-1.9,0.3-2.9,0.8
		c-0.9,0.5-1.6,1.2-2.2,2.1c-0.5,0.9-0.8,1.9-0.8,2.9c0,1,0.3,2,0.8,2.9c0.5,0.9,1.2,1.6,2.2,2.1c0.9,0.5,1.9,0.8,2.9,0.8
		c1,0,2-0.3,2.9-0.8c0.9-0.5,1.6-1.2,2.1-2.1c0.5-0.9,0.8-1.9,0.8-2.9c0-1-0.3-2-0.8-2.9c-0.5-0.9-1.2-1.6-2.2-2.1
		C294.5,53.2,293.5,52.9,292.6,52.9L292.6,52.9z M289.5,62.6v-7.5h2.6c0.9,0,1.5,0.1,1.9,0.2c0.4,0.1,0.7,0.4,0.9,0.7
		c0.2,0.3,0.3,0.7,0.3,1.1c0,0.5-0.2,1-0.6,1.4c-0.4,0.4-0.9,0.6-1.6,0.7c0.3,0.1,0.5,0.2,0.6,0.4c0.3,0.3,0.7,0.8,1.1,1.5l0.9,1.5
		h-1.5l-0.7-1.2c-0.5-0.9-0.9-1.5-1.3-1.7c-0.2-0.2-0.5-0.3-1-0.3h-0.7v3.2H289.5L289.5,62.6z M290.7,58.4h1.5
		c0.7,0,1.2-0.1,1.4-0.3c0.3-0.2,0.4-0.5,0.4-0.8c0-0.2-0.1-0.4-0.2-0.6c-0.1-0.2-0.3-0.3-0.5-0.4c-0.2-0.1-0.6-0.1-1.2-0.1h-1.4
		V58.4L290.7,58.4z"/>
</g>
</svg>
