<?xml version="1.0" encoding="utf-8"?>
<!-- Generator: Adobe Illustrator 19.0.0, SVG Export Plug-In . SVG Version: 6.00 Build 0)  -->
<svg version="1.1" id="Слой_1" xmlns="http://www.w3.org/2000/svg" xmlns:xlink="http://www.w3.org/1999/xlink" x="0px" y="0px"
	 viewBox="0 0 159 35.7" style="enable-background:new 0 0 159 35.7;" xml:space="preserve">
<style type="text/css">
	.st0{fill:#008AAB;}
</style>
<g>
	<polygon class="st0" points="0,6.1 0,27.9 7.8,27.9 7.8,17.8 18.2,28.1 25.4,28.1 25.4,6.1 17.8,6.1 17.8,16.4 7.5,6.1 	"/>
	<path class="st0" d="M46.7,28.1h8.5L45,6.1h-8.3L26.2,28h8.5l1-2.4h9.9L46.7,28.1z M38.5,19.1l2.2-5.2l2.2,5.2H38.5z"/>
	<path class="st0" d="M123.7,28.1h8.5L122,6.1h-8.3L103.3,28h8.5l1-2.4h9.9L123.7,28.1z M115.5,19.1l2.2-5.2l2.2,5.2H115.5z"/>
	<path class="st0" d="M77.5,5.9v6.4H61.9v1.3h12.6c0,0,4.5-0.2,4.5,4.5v5.7c0,0,0.4,4.1-5.6,4.1H56v-6.6h15.9v-1.3H59.6
		c0,0-4.6,0-4.6-5v-5.1c0,0-0.4-4.2,5.5-4.2H77.5z"/>
	<path class="st0" d="M97.9,5.9H80.3v22h18c0,0,6.1,0.4,6.1-5.6V12.1C104.4,12.1,104.7,5.9,97.9,5.9z M96.3,20.8h-7.7v-7.5h7.7V20.8
		z"/>
	<path class="st0" d="M147.7,5.8c-7.8,0-10.8,0-10.8,0s-5.9-0.3-5.9,6.4c0,6.7,0,10.4,0,10.4s0,5.5,6.4,5.5h9.1v7.6h7.5V28h-3.9
		c1.3-0.2,4.6-1,4.6-4.9c0-4.8,0-11.6,0-11.6S155.6,5.8,147.7,5.8z M139.1,13.1h7.7v7.8h-7.7V13.1z"/>
	<g>
		<path class="st0" d="M156,2.5h0.6v0l0.6,1.2h0.5L157,2.5c0.2,0,0.3-0.1,0.5-0.2c0.1-0.1,0.2-0.3,0.2-0.5c0-0.3-0.1-0.4-0.3-0.6
			C157.2,1.1,157,1,156.6,1c0,0,0,0,0,0h-1v2.7h0.4V2.5z M156,1.3h0.5c0,0,0.1,0,0.1,0c0.2,0,0.4,0,0.5,0.1c0.1,0.1,0.2,0.2,0.2,0.4
			c0,0.2-0.1,0.3-0.2,0.4c-0.1,0-0.3,0.1-0.5,0.1c0,0-0.1,0-0.1,0H156V1.3z"/>
		<path class="st0" d="M155,4c0.2,0.2,0.5,0.4,0.8,0.5c0.3,0.1,0.6,0.2,0.9,0.2c0,0,0.1,0,0.1,0c0.3,0,0.5-0.1,0.8-0.2
			c0.3-0.1,0.6-0.3,0.8-0.5c0.2-0.2,0.4-0.5,0.5-0.8c0.1-0.3,0.2-0.6,0.2-0.9c0-0.3-0.1-0.6-0.2-0.9c-0.1-0.3-0.3-0.5-0.5-0.8
			c-0.2-0.2-0.5-0.4-0.8-0.5C157.3,0.1,157,0,156.7,0c0,0-0.1,0-0.1,0c-0.3,0-0.6,0.1-0.9,0.2c-0.3,0.1-0.5,0.3-0.8,0.5
			c-0.2,0.2-0.4,0.5-0.5,0.8c-0.1,0.3-0.2,0.6-0.2,0.9c0,0.3,0,0.6,0.2,0.9C154.6,3.5,154.7,3.8,155,4z M154.7,1.6
			c0.1-0.2,0.3-0.5,0.5-0.7c0.2-0.2,0.4-0.3,0.7-0.4c0.2-0.1,0.5-0.2,0.8-0.2c0,0,0.1,0,0.1,0c0.3,0,0.5,0.1,0.7,0.2
			c0.2,0.1,0.5,0.3,0.7,0.5c0.2,0.2,0.3,0.4,0.4,0.7c0.1,0.2,0.2,0.5,0.2,0.8c0,0.3-0.1,0.6-0.2,0.8c-0.1,0.3-0.2,0.5-0.4,0.6
			c-0.2,0.2-0.4,0.4-0.7,0.5c-0.2,0.1-0.4,0.1-0.7,0.2c0,0-0.1,0-0.1,0c-0.3,0-0.5,0-0.8-0.2c-0.2-0.1-0.5-0.3-0.7-0.5
			c-0.2-0.2-0.4-0.4-0.4-0.7c-0.1-0.3-0.2-0.5-0.2-0.8C154.5,2.1,154.6,1.8,154.7,1.6z"/>
	</g>
</g>
</svg>
