<?xml version="1.0" encoding="utf-8"?>
<!-- Generator: Adobe Illustrator 19.0.0, SVG Export Plug-In . SVG Version: 6.00 Build 0)  -->
<svg version="1.1" id="Слой_1" xmlns="http://www.w3.org/2000/svg" xmlns:xlink="http://www.w3.org/1999/xlink" x="0px" y="0px"
	 viewBox="0 0 180.5 41.3" style="enable-background:new 0 0 180.5 41.3;" xml:space="preserve">
<style type="text/css">
	.st0{fill-rule:evenodd;clip-rule:evenodd;fill:#274153;}
	.st1{fill-rule:evenodd;clip-rule:evenodd;fill:#EFBB1D;}
</style>
<g>
	<path class="st0" d="M61.8,26.1c0,8.9,6.4,15.1,15.3,15.1c8.9,0,15.4-6.2,15.4-15.1S86,11,77.1,11C68.2,11,61.8,17.3,61.8,26.1
		L61.8,26.1z M68.8,26.1c0-5.2,3.5-8.6,8.3-8.6c4.8,0,8.3,3.3,8.3,8.6c0,5.2-3.5,8.5-8.3,8.5C72.3,34.7,68.8,31.3,68.8,26.1z"/>
	<g>
		<path class="st1" d="M6.3,30.7H0v10h6.1l0.1-1.5h0.2c1.1,1.1,3.4,2,6.5,2c5.2,0,9.3-2.8,9.3-9c0-11.8-15.9-7.4-15.9-12.9
			c0-4.1,9.7-6,9.7,2.2h6.2v-10h-6.1L16,13.1h-0.2c-1.2-1.2-3.7-2-6.3-2C4.6,11,0,14,0,20c0,11.5,16,7.4,16,12.8
			C16,37.3,6.3,38.7,6.3,30.7z"/>
		<path class="st1" d="M59.3,21.6v-10H37v6.3h2.7v16.4H37v6.3h2h3.8h5.3v-6.3h-2.7c0-1.8,0-3.5,0-5.3h7.2v-5.9h-7.2v-5.3h7.2v3.7
			h1.3H59.3z"/>
		<path class="st1" d="M16.1,0v10h6.1V6.3h3.9v16.9h-2.7v5.9c4.1,0,8.2,0,12.4,0v-5.9h-2.7c0-5.5,0-11.4,0-16.9H37V10h6.1V0
			C34.2,0,25.1,0,16.1,0z"/>
	</g>
	<path class="st0" d="M180.5,40.7v-6.3h-2.3l-7.5-8.2l6.8-8.2h2.7l0.1-6.3h-11.8l-0.1,6.3h2l-2,2.6c-0.5,0.7-1.6,2-1.6,2h-0.2
		c0,0-1.1-1.4-1.7-2l-2.3-2.5h2l0.1-6.3h-13.2l-0.1,6.3h2.7l6.8,7.7l-7.4,8.7h-2.5v6.3h11.7v-6.3h-2l2.1-2.5c0.8-0.9,2-2.4,2-2.4
		h0.1c0,0,1.4,1.6,2.2,2.6l2,2.3h-2v6.3H180.5z"/>
	<polygon class="st0" points="148.3,40.7 148.3,30.7 141.9,30.7 141.9,34.4 133.9,34.4 133.9,29.1 140.5,29.1 140.5,23.2 
		133.9,23.2 133.9,17.9 141.7,17.9 141.7,21.6 148.1,21.6 148.1,11.6 124.3,11.6 124.3,17.9 127,17.9 127,34.4 124.3,34.4 
		124.3,40.7 	"/>
	<path class="st0" d="M122,40.5v-6.1h-4.1l-3.1-5.3c3.5-1.3,5.4-3.9,5.4-7.9c0-6-4.3-9.8-11.6-9.8H94.9v6.3h2.7v16.7h-2.7v6.1h11.6
		v-6.1h-1.9v-3.9h1.7h1.2l5.6,10H122L122,40.5z M104.9,24.9v-6.9h4.2c2.5,0,3.8,1.3,3.8,3.5c0,2.3-1.4,3.4-3.7,3.4H104.9z"/>
</g>
</svg>
