<?xml version="1.0" encoding="utf-8"?>
<!-- Generator: Adobe Illustrator 19.0.0, SVG Export Plug-In . SVG Version: 6.00 Build 0)  -->
<svg version="1.1" id="Слой_1" xmlns="http://www.w3.org/2000/svg" xmlns:xlink="http://www.w3.org/1999/xlink" x="0px" y="0px"
	 viewBox="0 0 124.6 73.8" style="enable-background:new 0 0 124.6 73.8;" xml:space="preserve">
<style type="text/css">
	.st0{fill-rule:evenodd;clip-rule:evenodd;fill:#E42D2B;}
	.st1{fill-rule:evenodd;clip-rule:evenodd;fill:#E5312B;}
	.st2{fill-rule:evenodd;clip-rule:evenodd;fill:#E5342D;}
	.st3{fill-rule:evenodd;clip-rule:evenodd;fill:#E5362E;}
	.st4{fill-rule:evenodd;clip-rule:evenodd;fill:#E5392E;}
	.st5{fill-rule:evenodd;clip-rule:evenodd;fill:#E53B30;}
	.st6{fill-rule:evenodd;clip-rule:evenodd;fill:#E63F31;}
	.st7{fill-rule:evenodd;clip-rule:evenodd;fill:#E64132;}
	.st8{fill-rule:evenodd;clip-rule:evenodd;fill:#E64433;}
	.st9{fill-rule:evenodd;clip-rule:evenodd;fill:#E74735;}
	.st10{fill-rule:evenodd;clip-rule:evenodd;fill:#E74935;}
	.st11{fill-rule:evenodd;clip-rule:evenodd;fill:#E74C38;}
	.st12{fill-rule:evenodd;clip-rule:evenodd;fill:#E74D39;}
	.st13{fill-rule:evenodd;clip-rule:evenodd;fill:#E8513B;}
	.st14{fill-rule:evenodd;clip-rule:evenodd;fill:#E8533B;}
	.st15{fill-rule:evenodd;clip-rule:evenodd;fill:#E8563D;}
	.st16{fill-rule:evenodd;clip-rule:evenodd;fill:#E8573F;}
	.st17{fill-rule:evenodd;clip-rule:evenodd;fill:#E85941;}
	.st18{fill-rule:evenodd;clip-rule:evenodd;fill:#E95C43;}
	.st19{fill-rule:evenodd;clip-rule:evenodd;fill:#E95C44;}
	.st20{fill-rule:evenodd;clip-rule:evenodd;fill:#E96046;}
	.st21{fill-rule:evenodd;clip-rule:evenodd;fill:#EA6147;}
	.st22{fill-rule:evenodd;clip-rule:evenodd;fill:#EA6349;}
	.st23{fill-rule:evenodd;clip-rule:evenodd;fill:#EA654A;}
	.st24{fill-rule:evenodd;clip-rule:evenodd;fill:#EB694D;}
	.st25{fill-rule:evenodd;clip-rule:evenodd;fill:#EB6A4F;}
	.st26{fill-rule:evenodd;clip-rule:evenodd;fill:#EB6C51;}
	.st27{fill-rule:evenodd;clip-rule:evenodd;fill:#EB6E53;}
	.st28{fill-rule:evenodd;clip-rule:evenodd;fill:#EC7054;}
	.st29{fill-rule:evenodd;clip-rule:evenodd;fill:#EC7256;}
	.st30{fill-rule:evenodd;clip-rule:evenodd;fill:#EC7458;}
	.st31{fill-rule:evenodd;clip-rule:evenodd;fill:#EC7559;}
	.st32{fill-rule:evenodd;clip-rule:evenodd;fill:#ED795B;}
	.st33{fill-rule:evenodd;clip-rule:evenodd;fill:#ED7A5D;}
	.st34{fill-rule:evenodd;clip-rule:evenodd;fill:#ED7C5F;}
	.st35{fill-rule:evenodd;clip-rule:evenodd;fill:#EE7E61;}
	.st36{fill-rule:evenodd;clip-rule:evenodd;fill:#EE8063;}
	.st37{fill-rule:evenodd;clip-rule:evenodd;fill:#EE8164;}
	.st38{fill-rule:evenodd;clip-rule:evenodd;fill:#EE8367;}
	.st39{fill-rule:evenodd;clip-rule:evenodd;fill:#EE8468;}
	.st40{fill-rule:evenodd;clip-rule:evenodd;fill:#EF856A;}
	.st41{fill-rule:evenodd;clip-rule:evenodd;fill:#EF886D;}
	.st42{fill-rule:evenodd;clip-rule:evenodd;fill:#EF896D;}
	.st43{fill-rule:evenodd;clip-rule:evenodd;fill:#EF8B6F;}
	.st44{fill-rule:evenodd;clip-rule:evenodd;fill:#F08D71;}
	.st45{fill-rule:evenodd;clip-rule:evenodd;fill:#F08F74;}
	.st46{fill-rule:evenodd;clip-rule:evenodd;fill:#F09075;}
	.st47{fill-rule:evenodd;clip-rule:evenodd;fill:#F19477;}
	.st48{fill-rule:evenodd;clip-rule:evenodd;fill:#F1987D;}
	.st49{fill-rule:evenodd;clip-rule:evenodd;fill:#F29A7F;}
	.st50{fill-rule:evenodd;clip-rule:evenodd;fill:#F29B80;}
	.st51{fill-rule:evenodd;clip-rule:evenodd;fill:#F39F84;}
	.st52{fill-rule:evenodd;clip-rule:evenodd;fill:#F3A086;}
	.st53{fill-rule:evenodd;clip-rule:evenodd;fill:#F3A58B;}
	.st54{fill-rule:evenodd;clip-rule:evenodd;fill:#F4A68D;}
	.st55{fill-rule:evenodd;clip-rule:evenodd;fill:#F4A88F;}
	.st56{fill-rule:evenodd;clip-rule:evenodd;fill:#F5AC93;}
	.st57{fill-rule:evenodd;clip-rule:evenodd;fill:#F5AF96;}
	.st58{fill-rule:evenodd;clip-rule:evenodd;fill:#F5B197;}
	.st59{fill-rule:evenodd;clip-rule:evenodd;fill:#F6B59C;}
	.st60{fill-rule:evenodd;clip-rule:evenodd;fill:#F6B69F;}
	.st61{fill-rule:evenodd;clip-rule:evenodd;fill:#F7BBA4;}
	.st62{fill-rule:evenodd;clip-rule:evenodd;fill:#F7BCA7;}
	.st63{fill-rule:evenodd;clip-rule:evenodd;fill:#F7BEA9;}
	.st64{fill-rule:evenodd;clip-rule:evenodd;fill:#F8C2AE;}
	.st65{fill-rule:evenodd;clip-rule:evenodd;fill:#F8C4B1;}
	.st66{fill-rule:evenodd;clip-rule:evenodd;fill:#F8C7B4;}
	.st67{fill-rule:evenodd;clip-rule:evenodd;fill:#F9CCBA;}
	.st68{fill-rule:evenodd;clip-rule:evenodd;fill:#F9CDBC;}
	.st69{fill-rule:evenodd;clip-rule:evenodd;fill:#FAD2C1;}
	.st70{fill-rule:evenodd;clip-rule:evenodd;fill:#FAD4C4;}
	.st71{fill-rule:evenodd;clip-rule:evenodd;fill:#FBD6C6;}
	.st72{fill-rule:evenodd;clip-rule:evenodd;fill:#FBDACC;}
	.st73{fill-rule:evenodd;clip-rule:evenodd;fill:#FBDDCF;}
	.st74{fill-rule:evenodd;clip-rule:evenodd;fill:#FBDED1;}
	.st75{fill-rule:evenodd;clip-rule:evenodd;fill:#FCE0D3;}
	.st76{fill-rule:evenodd;clip-rule:evenodd;fill:#FCE4D8;}
	.st77{fill-rule:evenodd;clip-rule:evenodd;fill:#FEEEE5;}
	.st78{fill-rule:evenodd;clip-rule:evenodd;fill:#FEF3ED;}
	.st79{fill-rule:evenodd;clip-rule:evenodd;fill:#FFFFFF;}
	.st80{fill-rule:evenodd;clip-rule:evenodd;fill:#231F20;}
	.st81{fill-rule:evenodd;clip-rule:evenodd;fill:#F1957A;}
</style>
<g>
	<polygon class="st0" points="14.8,44.4 15.9,44.4 15,44.8 14.8,44.4 	"/>
	<polygon class="st1" points="15.9,44.4 14.8,44.4 14.7,44.1 16.8,44 15.9,44.4 	"/>
	<polygon class="st1" points="16.8,44 14.7,44.1 14.6,43.7 17.9,43.6 16.8,44 	"/>
	<polygon class="st2" points="17.9,43.6 14.6,43.7 14.4,43.4 18.9,43.3 17.9,43.6 	"/>
	<polygon class="st2" points="18.9,43.3 14.4,43.4 14.3,43 19.8,42.9 18.9,43.3 	"/>
	<polygon class="st3" points="19.8,42.9 14.3,43 14.2,42.7 20.8,42.5 19.8,42.9 	"/>
	<polygon class="st3" points="20.8,42.5 14.2,42.7 14.1,42.3 21.8,42.1 20.8,42.5 	"/>
	<polygon class="st4" points="21.8,42.1 14.1,42.3 13.9,42 22.8,41.7 21.8,42.1 	"/>
	<polygon class="st4" points="22.8,41.7 13.9,42 13.8,41.6 23.8,41.4 22.8,41.7 	"/>
	<polygon class="st5" points="23.8,41.4 13.8,41.6 13.7,41.3 24.7,41 23.8,41.4 	"/>
	<polygon class="st5" points="24.7,41 13.7,41.3 13.5,40.9 25.7,40.6 24.7,41 	"/>
	<polygon class="st6" points="25.7,40.6 13.5,40.9 13.4,40.6 26.7,40.3 25.7,40.6 	"/>
	<polygon class="st6" points="26.7,40.3 13.4,40.6 13.3,40.2 27.7,39.9 26.7,40.3 	"/>
	<polygon class="st7" points="27.7,39.9 13.3,40.2 13.2,39.9 28.7,39.5 27.7,39.9 	"/>
	<polygon class="st7" points="28.7,39.5 13.2,39.9 13,39.5 17.7,39.4 17.7,39.5 17.9,39.4 29.6,39.1 28.7,39.5 	"/>
	<path class="st8" d="M29.6,39.1l-11.7,0.3l1-0.4l11.7-0.3L29.6,39.1L29.6,39.1z M17.7,39.4L13,39.5l-0.1-0.3l4.6-0.1L17.7,39.4
		L17.7,39.4z"/>
	<path class="st9" d="M30.6,38.7L18.9,39l1-0.4l11.6-0.3L30.6,38.7L30.6,38.7z M17.5,39.1l-4.6,0.1l-0.1-0.3l4.6-0.1L17.5,39.1
		L17.5,39.1z"/>
	<path class="st9" d="M31.6,38.4l-11.6,0.3l1.1-0.4L32.6,38L31.6,38.4L31.6,38.4z M17.4,38.7l-4.6,0.1l-0.1-0.4l4.6-0.1L17.4,38.7
		L17.4,38.7z"/>
	<path class="st9" d="M32.6,38L21,38.3l1-0.4l11.6-0.3L32.6,38L32.6,38z M17.3,38.4l-4.6,0.1l-0.1-0.3l4.6-0.1L17.3,38.4L17.3,38.4z
		"/>
	<path class="st10" d="M33.6,37.6L22,37.9l1-0.4l11.5-0.3L33.6,37.6L33.6,37.6z M17.1,38l-4.6,0.1l-0.1-0.3l4.6-0.1L17.1,38L17.1,38
		z"/>
	<path class="st11" d="M34.5,37.2L23,37.5l1-0.4l11.5-0.3L34.5,37.2L34.5,37.2z M17,37.7l-4.6,0.1l-0.1-0.3l4.6-0.1L17,37.7L17,37.7
		z"/>
	<path class="st11" d="M35.5,36.9L24,37.1l1-0.4l11.5-0.3L35.5,36.9L35.5,36.9z M16.9,37.3l-4.6,0.1l-0.1-0.3l4.6-0.1L16.9,37.3
		L16.9,37.3z"/>
	<path class="st12" d="M36.5,36.5L25,36.8l1.1-0.4l11.5-0.3L36.5,36.5L36.5,36.5z M16.8,37l-4.6,0.1L12,36.7l4.6-0.1L16.8,37
		L16.8,37z"/>
	<path class="st12" d="M37.5,36.1L26,36.4l1-0.4l11.4-0.3L37.5,36.1L37.5,36.1z M16.6,36.6L12,36.7l-0.1-0.3l4.6-0.1L16.6,36.6
		L16.6,36.6z"/>
	<path class="st13" d="M38.5,35.7L27,36l1-0.4l11.4-0.3L38.5,35.7L38.5,35.7z M16.5,36.3l-4.6,0.1L11.7,36l4.6-0.1L16.5,36.3
		L16.5,36.3z"/>
	<path class="st13" d="M39.4,35.3L28,35.6l1-0.4L40.4,35L39.4,35.3L39.4,35.3z M16.4,35.9L11.7,36l-0.1-0.3l4.6-0.1L16.4,35.9
		L16.4,35.9z"/>
	<path class="st14" d="M40.4,35L29,35.3l1.1-0.4l11.3-0.3L40.4,35L40.4,35z M16.2,35.6l-4.6,0.1l-0.1-0.4l4.6-0.1L16.2,35.6
		L16.2,35.6z"/>
	<path class="st14" d="M41.4,34.6l-11.3,0.3l1-0.4l11.3-0.3L41.4,34.6L41.4,34.6z M16.1,35.2l-4.6,0.1L11.3,35l4.6-0.1L16.1,35.2
		L16.1,35.2z"/>
	<path class="st15" d="M42.4,34.2l-11.3,0.3l1-0.4l11.3-0.3L42.4,34.2L42.4,34.2z M16,34.9L11.3,35l-0.1-0.3l4.6-0.1L16,34.9
		L16,34.9z"/>
	<path class="st15" d="M43.4,33.8l-11.3,0.3l1-0.4l11.2-0.3L43.4,33.8L43.4,33.8z M15.8,34.5l-4.6,0.1l-0.1-0.3l4.6-0.1L15.8,34.5
		L15.8,34.5z"/>
	<path class="st16" d="M44.3,33.4l-11.2,0.3l1-0.4l11.2-0.3L44.3,33.4L44.3,33.4z M15.7,34.2l-4.6,0.1L11,34l4.6-0.1L15.7,34.2
		L15.7,34.2z"/>
	<path class="st16" d="M45.3,33.1l-11.2,0.3l1.1-0.4l11.2-0.3L45.3,33.1L45.3,33.1z M15.6,33.8L11,34l-0.1-0.4l4.6-0.1L15.6,33.8
		L15.6,33.8z"/>
	<path class="st17" d="M46.3,32.7L35.2,33l1-0.4l11.1-0.3L46.3,32.7L46.3,32.7z M15.5,33.5l-4.6,0.1l-0.1-0.3l4.6-0.1L15.5,33.5
		L15.5,33.5z"/>
	<path class="st17" d="M47.3,32.3l-11.1,0.3l1-0.4l11.1-0.3L47.3,32.3L47.3,32.3z M15.3,33.1l-4.6,0.1l-0.1-0.3l4.6-0.1L15.3,33.1
		L15.3,33.1z"/>
	<path class="st18" d="M48.3,31.9l-11.1,0.3l1-0.4l11.1-0.3L48.3,31.9L48.3,31.9z M15.2,32.8l-4.6,0.1l-0.1-0.3l4.6-0.1L15.2,32.8
		L15.2,32.8z"/>
	<path class="st18" d="M49.2,31.6l-11.1,0.3l1-0.4l11.1-0.3L49.2,31.6L49.2,31.6z M15.1,32.4l-4.6,0.1l-0.1-0.3l4.6-0.1L15.1,32.4
		L15.1,32.4z"/>
	<path class="st19" d="M50.2,31.2l-11.1,0.3l1.1-0.4l11-0.3L50.2,31.2L50.2,31.2z M14.9,32.1l-4.6,0.1l-0.1-0.4l4.6-0.1L14.9,32.1
		L14.9,32.1z"/>
	<path class="st20" d="M51.2,30.8l-11,0.3l1-0.4l11-0.3L51.2,30.8L51.2,30.8z M14.8,31.7l-4.6,0.1l-0.1-0.3l4.6-0.1L14.8,31.7
		L14.8,31.7z"/>
	<path class="st20" d="M52.2,30.4l-11,0.3l1-0.4l11-0.3L52.2,30.4L52.2,30.4z M14.7,31.4l-4.6,0.1l-0.1-0.3l4.6-0.1L14.7,31.4
		L14.7,31.4z"/>
	<path class="st20" d="M53.2,30l-11,0.3l1-0.4l10.9-0.3L53.2,30L53.2,30z M14.6,31l-4.6,0.1l-0.1-0.3l4.6-0.1L14.6,31L14.6,31z"/>
	<path class="st21" d="M54.1,29.7L43.2,30l1-0.4l10.9-0.3L54.1,29.7L54.1,29.7z M14.4,30.7l-4.6,0.1l-0.1-0.3l4.6-0.1L14.4,30.7
		L14.4,30.7z"/>
	<path class="st22" d="M55.1,29.3l-10.9,0.3l1-0.4l10.9-0.3L55.1,29.3L55.1,29.3z M14.3,30.3l-4.6,0.1l-0.1-0.4l4.6-0.1L14.3,30.3
		L14.3,30.3z"/>
	<path class="st22" d="M56.1,28.9l-10.9,0.3l1-0.4l10.8-0.3L56.1,28.9L56.1,28.9z M14.2,30l-4.6,0.1l-0.1-0.3l4.6-0.1L14.2,30
		L14.2,30z"/>
	<path class="st23" d="M57.1,28.5l-10.8,0.3l1-0.4l10.8-0.3L57.1,28.5L57.1,28.5z M14,29.6l-4.6,0.1l-0.1-0.3l4.6-0.1L14,29.6
		L14,29.6z"/>
	<path class="st23" d="M58.1,28.2l-10.8,0.3l1-0.4L59,27.8L58.1,28.2L58.1,28.2z M13.9,29.3l-4.6,0.1l-0.1-0.3l4.6-0.1L13.9,29.3
		L13.9,29.3z"/>
	<path class="st23" d="M59,27.8l-10.8,0.3l1-0.4L60,27.4L59,27.8L59,27.8z M13.8,28.9l-4.6,0.1L9,28.7l4.6-0.1L13.8,28.9L13.8,28.9z
		"/>
	<path class="st24" d="M60,27.4l-10.8,0.3l1-0.4L61,27L60,27.4L60,27.4z M13.7,28.6L9,28.7l-0.1-0.4l4.6-0.1L13.7,28.6L13.7,28.6z"
		/>
	<path class="st25" d="M61,27l-10.7,0.3l1-0.4L62,26.6L61,27L61,27z M13.5,28.2l-4.6,0.1L8.8,28l4.6-0.1L13.5,28.2L13.5,28.2z"/>
	<path class="st25" d="M62,26.6l-10.7,0.3l1-0.4L63,26.3L62,26.6L62,26.6z M13.4,27.9L8.8,28l-0.1-0.3l4.6-0.1L13.4,27.9L13.4,27.9z
		"/>
	<path class="st26" d="M63,26.3l-10.7,0.3l1-0.4l10.6-0.3L63,26.3L63,26.3z M13.3,27.5l-4.6,0.1l-0.1-0.3l4.6-0.1L13.3,27.5
		L13.3,27.5z"/>
	<path class="st26" d="M63.9,25.9l-10.6,0.3l1-0.4l10.6-0.3L63.9,25.9L63.9,25.9z M13.1,27.2l-4.6,0.1L8.4,27l4.6-0.1L13.1,27.2
		L13.1,27.2z"/>
	<path class="st27" d="M64.9,25.5l-10.6,0.3l1-0.4l10.6-0.3L64.9,25.5L64.9,25.5z M13,26.9L8.4,27l-0.1-0.4l4.6-0.1L13,26.9L13,26.9
		z"/>
	<path class="st27" d="M65.9,25.1l-10.6,0.3l1-0.4l10.5-0.3L65.9,25.1L65.9,25.1z M12.9,26.5l-4.6,0.1l-0.1-0.3l4.6-0.1L12.9,26.5
		L12.9,26.5z"/>
	<path class="st28" d="M66.9,24.8L56.4,25l1-0.4l10.5-0.3L66.9,24.8L66.9,24.8z M12.8,26.1l-4.6,0.1L8,25.9l4.6-0.1L12.8,26.1
		L12.8,26.1z"/>
	<path class="st28" d="M67.9,24.4l-10.5,0.3l1-0.4L68.8,24L67.9,24.4L67.9,24.4z M12.6,25.8L8,25.9l-0.1-0.3l4.6-0.1L12.6,25.8
		L12.6,25.8z"/>
	<path class="st29" d="M68.8,24l-10.5,0.3l1.1-0.4l10.4-0.3L68.8,24L68.8,24z M12.5,25.5l-4.6,0.1l-0.1-0.4l4.6-0.1L12.5,25.5
		L12.5,25.5z"/>
	<path class="st29" d="M69.9,23.6l-10.4,0.3l1-0.4l10.4-0.3L69.9,23.6L69.9,23.6z M12.4,25.1l-4.6,0.1l-0.1-0.1l-0.1-0.2l4.6-0.1
		L12.4,25.1L12.4,25.1z"/>
	<path class="st30" d="M70.8,23.2l-10.4,0.3l1-0.4l10.4-0.3L70.8,23.2L70.8,23.2z M12.2,24.7l-4.6,0.1l-0.1-0.3l4.6-0.1L12.2,24.7
		L12.2,24.7z"/>
	<path class="st30" d="M71.8,22.9l-10.4,0.3l1-0.4l10.4-0.3L71.8,22.9L71.8,22.9z M12.1,24.4l-4.6,0.1l-0.1-0.3l4.6-0.1L12.1,24.4
		L12.1,24.4z"/>
	<path class="st31" d="M72.8,22.5l-10.4,0.3l1-0.4l10.3-0.3L72.8,22.5L72.8,22.5z M12,24.1l-4.6,0.1l-0.1-0.3l4.6-0.1L12,24.1
		L12,24.1z"/>
	<path class="st31" d="M73.7,22.1l-10.3,0.3l1.1-0.4l10.3-0.3L73.7,22.1L73.7,22.1z M11.9,23.7l-4.6,0.1l-0.1-0.4l4.6-0.1L11.9,23.7
		L11.9,23.7z"/>
	<path class="st32" d="M74.8,21.7L64.5,22l1-0.4l10.3-0.3L74.8,21.7L74.8,21.7z M11.7,23.3l-4.6,0.1L7,23.1l4.6-0.1L11.7,23.3
		L11.7,23.3z"/>
	<path class="st33" d="M75.7,21.4l-10.3,0.3l1-0.4L76.7,21L75.7,21.4L75.7,21.4z M11.6,23L7,23.1l-0.1-0.3l4.6-0.1L11.6,23L11.6,23z
		"/>
	<path class="st33" d="M76.7,21l-10.2,0.3l1-0.4l10.2-0.3L76.7,21L76.7,21z M11.5,22.7l-4.6,0.1l-0.1-0.3l4.6-0.1L11.5,22.7
		L11.5,22.7z"/>
	<path class="st33" d="M77.7,20.6l-10.2,0.3l1-0.4l10.2-0.3L77.7,20.6L77.7,20.6z M11.3,22.3l-4.6,0.1l-0.1-0.3l4.6-0.1L11.3,22.3
		L11.3,22.3z"/>
	<path class="st34" d="M78.6,20.2l-10.2,0.3l1.1-0.4l10.1-0.3L78.6,20.2L78.6,20.2z M11.2,22l-4.6,0.1l-0.1-0.4l4.6-0.1L11.2,22
		L11.2,22z"/>
	<path class="st34" d="M79.7,19.8l-10.1,0.3l1-0.4l10.1-0.3L79.7,19.8L79.7,19.8z M11.1,21.6l-4.6,0.1l-0.1-0.3l4.5-0.1L11.1,21.6
		L11.1,21.6z"/>
	<path class="st35" d="M80.6,19.5l-10.1,0.3l1-0.4l10.1-0.3L80.6,19.5L80.6,19.5z M10.9,21.3l-4.5,0.1L6.3,21l4.5-0.1L10.9,21.3
		L10.9,21.3z"/>
	<path class="st36" d="M81.6,19.1l-10.1,0.3l1-0.4l10-0.3L81.6,19.1L81.6,19.1z M10.8,20.9L6.3,21l-0.1-0.3l4.5-0.1L10.8,20.9
		L10.8,20.9z"/>
	<path class="st36" d="M82.6,18.7l-10,0.3l1-0.4l10-0.3L82.6,18.7L82.6,18.7z M10.7,20.6l-4.5,0.1L6,20.3l4.5-0.1L10.7,20.6
		L10.7,20.6z"/>
	<path class="st36" d="M83.6,18.3l-10,0.3l1-0.4l10-0.3L83.6,18.3L83.6,18.3z M10.6,20.2L6,20.3L5.9,20l4.5-0.1L10.6,20.2L10.6,20.2
		z"/>
	<path class="st37" d="M84.6,18l-10,0.3l1-0.4l10-0.3L84.6,18L84.6,18z M10.4,19.9L5.9,20l-0.1-0.3l4.5-0.1L10.4,19.9L10.4,19.9z"/>
	<path class="st38" d="M85.5,17.6l-10,0.3l1-0.4l9.9-0.3L85.5,17.6L85.5,17.6z M10.3,19.5l-4.5,0.1l-0.1-0.3l4.5-0.1L10.3,19.5
		L10.3,19.5z"/>
	<path class="st38" d="M86.5,17.2l-9.9,0.3l1-0.4l9.9-0.3L86.5,17.2L86.5,17.2z M10.2,19.2l-4.5,0.1l-0.1-0.3l4.5-0.1L10.2,19.2
		L10.2,19.2z"/>
	<path class="st39" d="M87.5,16.8l-9.9,0.3l1-0.4l9.9-0.3L87.5,16.8L87.5,16.8z M10,18.8l-4.5,0.1l-0.1-0.3l4.5-0.1L10,18.8L10,18.8
		z"/>
	<path class="st39" d="M88.5,16.4l-9.9,0.3l1-0.4l9.8-0.3L88.5,16.4L88.5,16.4z M9.9,18.5l-4.5,0.1l-0.1-0.4l4.5-0.1L9.9,18.5
		L9.9,18.5z"/>
	<path class="st40" d="M89.5,16.1l-9.8,0.3l1-0.4l9.8-0.3L89.5,16.1L89.5,16.1z M9.8,18.1l-4.5,0.1l-0.1-0.3l4.5-0.1L9.8,18.1
		L9.8,18.1z"/>
	<path class="st40" d="M90.4,15.7l-9.8,0.3l1-0.4l9.8-0.3L90.4,15.7L90.4,15.7z M9.7,17.8l-4.5,0.1l-0.1-0.3l4.5-0.1L9.7,17.8
		L9.7,17.8z"/>
	<path class="st41" d="M91.4,15.3l-9.8,0.3l1-0.4l9.7-0.2L91.4,15.3L91.4,15.3z M9.5,17.4l-4.5,0.1l-0.1-0.3l4.5-0.1L9.5,17.4
		L9.5,17.4z"/>
	<path class="st41" d="M92.4,14.9l-9.7,0.2l1.1-0.4l9.7-0.2L92.4,14.9L92.4,14.9z M9.4,17.1l-4.5,0.1l-0.1-0.4l4.5-0.1L9.4,17.1
		L9.4,17.1z"/>
	<path class="st42" d="M93.4,14.5l-9.7,0.2l1-0.4l9.7-0.2L93.4,14.5L93.4,14.5z M9.3,16.7l-4.5,0.1l0-0.1l-0.1-0.3l4.4-0.1L9.3,16.7
		L9.3,16.7z"/>
	<path class="st42" d="M94.4,14.2l-9.7,0.2l1-0.4l9.6-0.2L94.4,14.2L94.4,14.2z M9.1,16.4l-4.4,0.1l-0.1-0.3L9,16l0.1,0.2L9.1,16.4
		L9.1,16.4z"/>
	<path class="st43" d="M95.3,13.8l-9.6,0.2l1-0.4l9.6-0.2L95.3,13.8L95.3,13.8z M9,16l-4.4,0.1l-0.1-0.3l4.4-0.1L9,16L9,16z"/>
	<path class="st43" d="M96.3,13.4l-9.6,0.2l1-0.4l9.6-0.2L96.3,13.4L96.3,13.4z M8.9,15.7l-4.4,0.1l-0.1-0.3l4.4-0.1L8.9,15.7
		L8.9,15.7z"/>
	<path class="st44" d="M97.3,13.1l-9.6,0.2l1.1-0.4l9.6-0.2L97.3,13.1L97.3,13.1z M8.8,15.3l-4.4,0.1l-0.1-0.4L8.6,15L8.8,15.3
		L8.8,15.3z"/>
	<path class="st44" d="M98.3,12.7l-9.6,0.2l1-0.4l9.5-0.2L98.3,12.7L98.3,12.7z M8.6,15l-4.4,0.1l-0.1-0.3l4.4-0.1L8.6,15L8.6,15z"
		/>
	<path class="st45" d="M99.3,12.3l-9.5,0.2l1-0.4l9.5-0.2L99.3,12.3L99.3,12.3z M8.5,14.6l-4.4,0.1L4,14.4l4.4-0.1L8.5,14.6
		L8.5,14.6z"/>
	<path class="st45" d="M100.2,11.9l-9.5,0.2l1-0.4l9.5-0.2L100.2,11.9L100.2,11.9z M8.4,14.3L4,14.4L3.9,14l4.4-0.1L8.4,14.3
		L8.4,14.3z"/>
	<path class="st46" d="M101.2,11.5l-9.5,0.2l1-0.4l9.4-0.2L101.2,11.5L101.2,11.5z M8.3,13.9L3.9,14l-0.1-0.3l4.3-0.1L8.3,13.9
		L8.3,13.9z"/>
	<path class="st46" d="M102.2,11.2l-9.4,0.2l4.2-1.6l9.3-0.2L102.2,11.2L102.2,11.2z M8.1,13.6l-4.3,0.1l-0.5-1.4l4.3-0.1L8.1,13.6
		L8.1,13.6z"/>
	<path class="st46" d="M102.2,11.2l-9.4,0.2l1.1-0.4l9.4-0.2L102.2,11.2L102.2,11.2z M8.1,13.6l-4.3,0.1l-0.1-0.4L8,13.2L8.1,13.6
		L8.1,13.6z"/>
	<path class="st47" d="M103.2,10.8L93.8,11l1-0.4l9.4-0.2L103.2,10.8L103.2,10.8z M8,13.2l-4.3,0.1L3.6,13l4.3-0.1L8,13.2L8,13.2z"
		/>
	<path class="st48" d="M104.2,10.4l-9.4,0.2l1-0.4l9.3-0.2L104.2,10.4L104.2,10.4z M7.9,12.9L3.6,13l-0.1-0.3l4.3-0.1L7.9,12.9
		L7.9,12.9z"/>
	<path class="st49" d="M105.2,10l-9.3,0.2l1-0.4l9.3-0.2L105.2,10L105.2,10z M7.8,12.5l-4.3,0.1l-0.1-0.3l4.3-0.1L7.8,12.5L7.8,12.5
		z"/>
	<path class="st50" d="M106.1,9.7l-9.3,0.2l1.1-0.4l9.3-0.2L106.1,9.7L106.1,9.7z M7.6,12.2l-4.3,0.1l-0.1-0.3l4.3-0.1L7.6,12.2
		L7.6,12.2z"/>
	<path class="st51" d="M107.1,9.3l-9.3,0.2l1-0.4l9.3-0.2L107.1,9.3L107.1,9.3z M7.5,11.8l-4.3,0.1l-0.1-0.4l4.3-0.1L7.5,11.8
		L7.5,11.8z"/>
	<path class="st52" d="M108.1,8.9l-9.3,0.2l1-0.4l9.2-0.2L108.1,8.9L108.1,8.9z M7.4,11.5l-4.3,0.1L3,11.2l4.3-0.1L7.4,11.5
		L7.4,11.5z"/>
	<path class="st53" d="M109.1,8.5l-9.2,0.2l1-0.4l9.2-0.2L109.1,8.5L109.1,8.5z M7.3,11.1L3,11.2l-0.1-0.3l4.3-0.1L7.3,11.1
		L7.3,11.1z"/>
	<path class="st54" d="M110.1,8.1l-9.2,0.2l1-0.4l9.2-0.2L110.1,8.1L110.1,8.1z M7.1,10.8l-4.3,0.1l-0.1-0.3L7,10.4L7.1,10.8
		L7.1,10.8z"/>
	<path class="st55" d="M111,7.8L101.9,8l1.1-0.4l9.1-0.2L111,7.8L111,7.8z M7,10.4l-4.2,0.1l-0.1-0.3l4.2-0.1L7,10.4L7,10.4z"/>
	<path class="st56" d="M112,7.4l-9.1,0.2l1-0.4L113,7L112,7.4L112,7.4z M6.9,10.1l-4.2,0.1L2.5,9.8l4.2-0.1L6.9,10.1L6.9,10.1z"/>
	<path class="st57" d="M113,7l-9.1,0.2l1-0.4l9.1-0.2L113,7L113,7z M6.8,9.7L2.5,9.8L2.4,9.5l4.2-0.1L6.8,9.7L6.8,9.7z"/>
	<path class="st58" d="M114,6.6l-9.1,0.2l1-0.4l9-0.2L114,6.6L114,6.6z M6.6,9.4L2.4,9.5L2.3,9.1L6.5,9L6.6,9.4L6.6,9.4z"/>
	<path class="st59" d="M115,6.3l-9,0.2l1-0.4l9-0.2L115,6.3L115,6.3z M6.5,9L2.3,9.1L2.2,8.8l4.2-0.1L6.5,9L6.5,9z"/>
	<path class="st60" d="M115.9,5.9l-9,0.2l1.1-0.4l9-0.2L115.9,5.9L115.9,5.9z M6.4,8.7L2.2,8.8L2.1,8.4l4.2-0.1L6.4,8.7L6.4,8.7z"/>
	<path class="st61" d="M117,5.5l-9,0.2l1-0.4l8.9-0.2L117,5.5L117,5.5z M6.3,8.3L2.1,8.4L2,8.1L6.1,8L6.3,8.3L6.3,8.3z"/>
	<path class="st62" d="M117.9,5.1L109,5.3l1-0.4l8.9-0.2L117.9,5.1L117.9,5.1z M6.1,8L2,8.1L1.9,7.7L6,7.6L6.1,8L6.1,8z"/>
	<path class="st63" d="M118.9,4.7L110,5l1-0.4l8.9-0.2L118.9,4.7L118.9,4.7z M6,7.6L1.9,7.7L1.7,7.4l4.2-0.1L6,7.5L6,7.6L6,7.6z"/>
	<path class="st64" d="M119.9,4.4L111,4.6l1-0.4l8.9-0.2L119.9,4.4L119.9,4.4z M5.9,7.3L1.7,7.4L1.6,7.1l4.1-0.1L5.9,7.3L5.9,7.3z"
		/>
	<path class="st65" d="M120.8,4L112,4.2l1.1-0.4l8.8-0.2L120.8,4L120.8,4z M5.8,6.9L1.6,7.1L1.5,6.7l4.1-0.1L5.8,6.9L5.8,6.9z"/>
	<path class="st66" d="M121.9,3.6L113,3.8l1-0.4l8.8-0.2L121.9,3.6L121.9,3.6z M5.6,6.6L1.5,6.7L1.4,6.3l4.1-0.1L5.6,6.6L5.6,6.6z"
		/>
	<path class="st67" d="M122.8,3.2L114,3.4l1-0.4l8.8-0.2L122.8,3.2L122.8,3.2z M5.5,6.2L1.4,6.3L1.3,6l4.1-0.1L5.5,6.2L5.5,6.2z"/>
	<path class="st68" d="M123.8,2.9L115,3.1l1-0.4l8.5-0.2l0,0.1L123.8,2.9L123.8,2.9z M5.4,5.9L1.3,6L1.2,5.6l4.1-0.1L5.4,5.9
		L5.4,5.9z"/>
	<path class="st69" d="M124.5,2.5L116,2.7l1-0.4l7.3-0.2L124.5,2.5L124.5,2.5z M5.3,5.5L1.2,5.6L1.1,5.3l4.1-0.1L5.3,5.5L5.3,5.5z"
		/>
	<path class="st70" d="M124.3,2.1L117,2.3l1.1-0.4l6.1-0.2L124.3,2.1L124.3,2.1z M5.2,5.2L1.1,5.3L0.9,4.9L5,4.8L5.2,5.2L5.2,5.2z"
		/>
	<path class="st71" d="M124.2,1.8l-6.1,0.2l1-0.4l4.9-0.1L124.2,1.8L124.2,1.8z M5,4.8L0.9,4.9L0.8,4.6l4.1-0.1L5,4.8L5,4.8z"/>
	<path class="st72" d="M124,1.4l-4.9,0.1l1-0.4l3.7-0.1L124,1.4L124,1.4z M4.9,4.5L0.8,4.6L0.7,4.2l4.1-0.1L4.9,4.5L4.9,4.5z"/>
	<path class="st73" d="M123.8,1.1l-3.7,0.1l1-0.4l2.6-0.1L123.8,1.1L123.8,1.1z M4.8,4.1L0.7,4.2L0.6,3.9l4.1-0.1L4.8,4.1L4.8,4.1z"
		/>
	<path class="st74" d="M123.6,0.7l-2.6,0.1l1.1-0.4l1.3,0L123.6,0.7L123.6,0.7z M4.7,3.8L0.6,3.9L0.5,3.6l4.1-0.1L4.7,3.8L4.7,3.8z"
		/>
	<path class="st75" d="M123.4,0.4l-1.3,0l1-0.4l0.1,0L123.4,0.4L123.4,0.4z M4.6,3.5L0.5,3.6L0.4,3.2l4.1-0.1L4.6,3.5L4.6,3.5z"/>
	<path class="st76" d="M123.3,0l-0.1,0L123.3,0L123.3,0L123.3,0z M4.4,3.1L0.4,3.2L0.3,2.8l4.1-0.1L4.4,3.1L4.4,3.1z"/>
	<polygon class="st76" points="4.3,2.7 0.3,2.8 0,2.1 3.9,1.4 4.3,2.7 	"/>
	<polygon class="st76" points="4.3,2.7 0.3,2.8 0.1,2.5 4.2,2.4 4.3,2.7 	"/>
	<polygon class="st77" points="4.2,2.4 0.1,2.5 0,2.2 4.1,2 4.2,2.4 	"/>
	<polygon class="st78" points="4.1,2 0,2.2 0,2.1 1.8,1.8 4,1.7 4.1,2 	"/>
	<polygon class="st79" points="4,1.7 1.8,1.8 3.9,1.4 4,1.7 	"/>
	<polygon class="st80" points="4.2,50.4 10.5,50.4 12,59.3 15.8,50.4 21.8,50.4 14.8,66.8 7.5,66.8 4.2,50.4 	"/>
	<path class="st80" d="M39.2,60.1l-12,0c0,1,0.3,1.8,0.7,2.2c0.5,0.7,1.3,1.1,2.2,1.1c0.6,0,1.1-0.1,1.7-0.5c0.3-0.2,0.7-0.5,1.1-1
		l6.1,0c-1,1.7-2.3,3.4-3.6,4.1c-1.3,0.7-3.1,1.1-5.5,1.1c-2.1,0-3.7-0.3-4.8-0.9c-1.1-0.6-2.1-1.6-2.8-2.9c-0.7-1.3-1-2.9-0.9-4.7
		c0.1-2.6,1-4.6,2.6-6.2c1.6-1.6,3.8-2.4,6.6-2.4c2.2,0,4,0.3,5.2,1c1.3,0.7,2.2,1.7,2.8,3.1c0.6,1.4,0.8,3.1,0.7,5.3L39.2,60.1
		L39.2,60.1z M33.2,57.1c0-1.2-0.3-2.1-0.8-2.6c-0.5-0.5-1.1-0.8-2-0.8c-0.9,0-1.7,0.4-2.3,1.2c-0.4,0.5-0.6,1.2-0.8,2.2L33.2,57.1
		L33.2,57.1z"/>
	<path class="st80" d="M42.6,50.4h5.8l-0.3,2.7c0.7-1.2,1.3-2,2-2.4c0.6-0.4,1.4-0.6,2.3-0.6c0.9,0,0.3-0.6,1.4,0l-0.8,6.2
		c-0.7-0.3-1.3-0.5-1.7-0.5c-0.8,0-1.5,0.3-2,1c-0.7,1-1.4,1.9-1.7,4.5l-0.6,5.5h-6.3L42.6,50.4L42.6,50.4z"/>
	<polygon class="st80" points="55.7,50.4 62.2,50.4 60,66.7 53.5,66.8 55.7,50.4 	"/>
	<polygon class="st80" points="56.6,43.7 63.1,43.7 62.5,48 56,48 56.6,43.7 	"/>
	<path class="st80" d="M78.2,58.6c0.2-2.5,1.3-4.6,3.2-6.2c1.9-1.6,4.3-2.4,7.2-2.4c3.4,0,5.8,0.9,7.3,2.8c1.2,1.5,1.7,3.4,1.5,5.7
		c-0.2,2.5-1.3,4.6-3.2,6.2c-1.9,1.6-4.3,2.4-7.3,2.4c-2.7,0-4.8-0.7-6.3-2C78.8,63.4,78,61.3,78.2,58.6L78.2,58.6z M84.9,58.5
		c-0.1,1.5,0.2,2.6,0.7,3.2c0.5,0.7,1.2,1,2.1,1c0.9,0,1.6-0.3,2.2-1c0.6-0.7,0.9-1.8,1-3.3c0.1-1.4-0.1-2.5-0.7-3.1
		c-0.5-0.7-1.2-1-2-1c-0.9,0-1.6,0.3-2.2,1C85.3,56,84.9,57.1,84.9,58.5L84.9,58.5z"/>
	<path class="st80" d="M99.7,50.4h5.6l-0.2,2.7c0.9-1.1,1.9-1.9,2.8-2.3c0.9-0.5,2-0.7,3.2-0.7c1.6,0,2.9,0.5,3.7,1.6
		c0.8,1,1.1,2.6,0.9,4.8l-1,10.4l-6,0l0.9-9c0.1-1,0-1.8-0.3-2.2c-0.3-0.4-0.8-0.6-1.5-0.6c-0.7,0-1.3,0.3-1.8,0.9
		c-0.5,0.6-0.8,1.6-1,3.1l-0.7,7.9h-6L99.7,50.4L99.7,50.4z"/>
	<polygon class="st0" points="64.5,50.4 63.8,50.6 63.9,50.4 64.5,50.4 	"/>
	<polygon class="st0" points="63.8,50.6 64.5,50.4 65.3,50.4 63.8,51 63.8,50.6 	"/>
	<polygon class="st0" points="63.8,51 65.3,50.4 66.2,50.4 63.7,51.3 63.8,51 	"/>
	<polygon class="st0" points="63.7,51.3 66.2,50.4 67,50.4 63.7,51.7 63.7,51.3 	"/>
	<polygon class="st1" points="63.7,51.7 67,50.4 67.8,50.4 63.6,52 63.7,51.7 	"/>
	<polygon class="st1" points="63.6,52 67.8,50.4 68.6,50.4 63.6,52.4 63.6,52 	"/>
	<polygon class="st2" points="63.6,52.4 68.6,50.4 69.4,50.4 63.5,52.7 63.6,52.4 	"/>
	<polygon class="st2" points="63.5,52.7 69.4,50.4 70.2,50.4 63.5,53.1 63.5,52.7 	"/>
	<polygon class="st2" points="63.5,53.1 70.2,50.4 71,50.4 63.4,53.4 63.5,53.1 	"/>
	<polygon class="st3" points="63.4,53.4 71,50.4 71.9,50.4 63.4,53.8 63.4,53.4 	"/>
	<polygon class="st3" points="63.4,53.8 71.9,50.4 72.7,50.4 63.3,54.1 63.4,53.8 	"/>
	<polygon class="st3" points="63.3,54.1 72.7,50.4 73.5,50.3 63.3,54.5 63.3,54.1 	"/>
	<polygon class="st4" points="63.3,54.5 73.5,50.3 74.3,50.3 63.2,54.8 63.3,54.5 	"/>
	<polygon class="st4" points="63.2,54.8 74.3,50.3 75.1,50.3 63.9,54.9 63.2,54.9 63.2,54.8 	"/>
	<polygon class="st5" points="63.9,54.9 75.1,50.3 75.9,50.3 64.8,54.9 63.9,54.9 	"/>
	<polygon class="st5" points="64.8,54.9 75.9,50.3 76.8,50.3 65.6,54.9 64.8,54.9 	"/>
	<polygon class="st5" points="65.6,54.9 76.8,50.3 77.6,50.3 66.4,54.9 65.6,54.9 	"/>
	<polygon class="st5" points="66.4,54.9 77.6,50.3 78.4,50.3 67.2,54.9 66.4,54.9 	"/>
	<polygon class="st6" points="67.2,54.9 78.4,50.3 79.1,50.3 79.1,50.4 68,54.9 67.2,54.9 	"/>
	<polygon class="st6" points="68,54.9 79.1,50.4 79.1,50.7 68.9,54.9 68,54.9 	"/>
	<polygon class="st7" points="68.9,54.9 79.1,50.7 79,51.1 69.7,54.9 68.9,54.9 	"/>
	<polygon class="st7" points="69.7,54.9 79,51.1 79,51.4 70.5,54.9 69.7,54.9 	"/>
	<polygon class="st7" points="70.5,54.9 79,51.4 79,51.7 70.7,55.1 70.9,54.9 70.5,54.9 	"/>
	<polygon class="st8" points="70.7,55.1 79,51.7 79,52.1 70.4,55.5 70.7,55.1 	"/>
	<polygon class="st8" points="70.4,55.5 79,52.1 79,52.4 70.1,56 70.4,55.5 	"/>
	<polygon class="st9" points="70.1,56 79,52.4 79,52.7 69.9,56.4 70.1,56 	"/>
	<polygon class="st9" points="69.9,56.4 79,52.7 79,53.1 69.6,56.9 69.9,56.4 	"/>
	<polygon class="st9" points="69.6,56.9 79,53.1 78.9,53.4 69.3,57.3 69.6,56.9 	"/>
	<polygon class="st10" points="69.3,57.3 78.9,53.4 78.9,53.7 69,57.8 69.3,57.3 	"/>
	<polygon class="st10" points="69,57.8 78.9,53.7 78.9,54.1 68.7,58.2 69,57.8 	"/>
	<polygon class="st10" points="68.7,58.2 78.9,54.1 78.9,54.2 78.7,54.5 68.4,58.7 68.7,58.2 	"/>
	<polygon class="st11" points="68.4,58.7 78.7,54.5 78.4,54.9 68.1,59.1 68.4,58.7 	"/>
	<polygon class="st11" points="68.1,59.1 78.4,54.9 78.1,55.4 67.8,59.5 68.1,59.1 	"/>
	<polygon class="st11" points="67.8,59.5 78.1,55.4 77.8,55.8 67.5,60 67.8,59.5 	"/>
	<polygon class="st12" points="67.5,60 77.8,55.8 77.5,56.3 67.2,60.5 67.5,60 	"/>
	<polygon class="st12" points="67.2,60.5 77.5,56.3 77.2,56.7 67,60.9 67.2,60.5 	"/>
	<polygon class="st13" points="67,60.9 77.2,56.7 76.9,57.2 66.7,61.3 67,60.9 	"/>
	<polygon class="st13" points="66.7,61.3 76.9,57.2 76.7,57.6 66.4,61.8 66.7,61.3 	"/>
	<polygon class="st13" points="66.4,61.8 76.7,57.6 76.3,58.1 66.1,62.2 66.4,61.8 	"/>
	<polygon class="st14" points="66.1,62.2 76.3,58.1 76,58.5 65.8,62.7 66.1,62.2 	"/>
	<polygon class="st14" points="65.8,62.7 76,58.5 75.8,59 65.5,63.1 65.8,62.7 	"/>
	<polygon class="st14" points="65.5,63.1 75.8,59 75.5,59.4 65.2,63.6 65.5,63.1 	"/>
	<polygon class="st15" points="65.2,63.6 75.5,59.4 75.2,59.9 64.9,64 65.2,63.6 	"/>
	<polygon class="st15" points="64.9,64 75.2,59.9 74.9,60.3 64.7,64.4 64.9,64 	"/>
	<polygon class="st15" points="64.7,64.4 74.9,60.3 74.6,60.8 64.4,64.9 64.7,64.4 	"/>
	<polygon class="st16" points="64.4,64.9 74.6,60.8 74.3,61.2 64.1,65.3 64.4,64.9 	"/>
	<polygon class="st16" points="64.1,65.3 74.3,61.2 74,61.7 63.8,65.8 64.1,65.3 	"/>
	<polygon class="st16" points="63.8,65.8 74,61.7 73.7,62.1 63.5,66.2 63.8,65.8 	"/>
	<polygon class="st17" points="63.5,66.2 73.7,62.1 73.4,62.6 63.2,66.7 63.5,66.2 	"/>
	<polygon class="st17" points="63.2,66.7 73.4,62.6 73.1,63 62.9,67.1 63.2,66.7 	"/>
	<polygon class="st18" points="62.9,67.1 73.1,63 72.8,63.5 62.6,67.6 62.9,67.1 	"/>
	<polygon class="st18" points="62.6,67.6 72.8,63.5 72.5,63.9 62.3,68 62.6,67.6 	"/>
	<polygon class="st18" points="62.3,68 72.5,63.9 72.2,64.4 62.1,68.5 62.3,68 	"/>
	<polygon class="st19" points="62.1,68.5 72.2,64.4 71.9,64.8 61.8,68.9 62.1,68.5 	"/>
	<polygon class="st19" points="61.8,68.9 71.9,64.8 71.6,65.3 61.5,69.4 61.8,68.9 	"/>
	<polygon class="st20" points="61.5,69.4 71.6,65.3 71.3,65.7 61.4,69.7 61.4,69.5 61.5,69.4 	"/>
	<polygon class="st20" points="61.4,69.7 71.3,65.7 71,66.2 61.4,70.1 61.4,69.7 	"/>
	<polygon class="st20" points="61.4,70.1 71,66.2 70.7,66.6 61.4,70.4 61.4,70.1 	"/>
	<polygon class="st20" points="61.4,70.4 70.7,66.6 70.4,67.1 61.3,70.7 61.4,70.4 	"/>
	<polygon class="st21" points="61.3,70.7 70.4,67.1 70.1,67.5 61.3,71.1 61.3,70.7 	"/>
	<polygon class="st21" points="61.3,71.1 70.1,67.5 69.8,68 61.3,71.4 61.3,71.1 	"/>
	<polygon class="st22" points="61.3,71.4 69.8,68 69.5,68.4 61.3,71.7 61.3,71.4 	"/>
	<polygon class="st22" points="61.3,71.7 69.5,68.4 69.2,68.9 61.3,72.1 61.3,71.7 	"/>
	<polygon class="st22" points="61.3,72.1 69.2,68.9 69,69.2 69.1,69.2 61.3,72.4 61.3,72.1 	"/>
	<polygon class="st23" points="61.3,72.4 69.1,69.2 69.9,69.2 61.2,72.8 61.3,72.4 	"/>
	<polygon class="st23" points="61.2,72.8 69.9,69.2 70.7,69.2 61.2,73.1 61.2,72.8 	"/>
	<polygon class="st23" points="61.2,73.1 70.7,69.2 71.6,69.2 61.2,73.4 61.2,73.1 	"/>
	<polygon class="st24" points="61.2,73.4 71.6,69.2 72.4,69.2 61.2,73.8 61.2,73.8 61.2,73.4 	"/>
	<polygon class="st24" points="61.2,73.8 72.4,69.2 73.2,69.2 62,73.7 61.2,73.8 	"/>
	<polygon class="st25" points="62,73.7 73.2,69.2 74,69.2 62.8,73.7 62,73.7 	"/>
	<polygon class="st25" points="62.8,73.7 74,69.2 74.8,69.2 63.6,73.7 62.8,73.7 	"/>
	<polygon class="st25" points="63.6,73.7 74.8,69.2 75.6,69.2 64.5,73.7 63.6,73.7 	"/>
	<polygon class="st25" points="64.5,73.7 75.6,69.2 76.5,69.2 65.3,73.7 64.5,73.7 	"/>
	<polygon class="st26" points="65.3,73.7 76.5,69.2 77.3,69.2 66.1,73.7 65.3,73.7 	"/>
	<polygon class="st26" points="66.1,73.7 77.3,69.2 78.1,69.2 66.9,73.7 66.1,73.7 	"/>
	<polygon class="st27" points="66.9,73.7 78.1,69.2 78.9,69.2 67.7,73.7 66.9,73.7 	"/>
	<polygon class="st27" points="67.7,73.7 78.9,69.2 79.7,69.2 68.6,73.7 67.7,73.7 	"/>
	<polygon class="st27" points="68.6,73.7 79.7,69.2 80.5,69.2 69.4,73.7 68.6,73.7 	"/>
	<polygon class="st28" points="69.4,73.7 80.5,69.2 81.3,69.2 70.2,73.7 69.4,73.7 	"/>
	<polygon class="st28" points="70.2,73.7 81.3,69.2 82.2,69.2 71,73.7 70.2,73.7 	"/>
	<polygon class="st29" points="71,73.7 82.2,69.2 83,69.2 71.8,73.7 71,73.7 	"/>
	<polygon class="st29" points="71.8,73.7 83,69.2 83.8,69.2 72.6,73.7 71.8,73.7 	"/>
	<polygon class="st29" points="72.6,73.7 83.8,69.2 84.6,69.2 73.4,73.7 72.6,73.7 	"/>
	<polygon class="st29" points="73.4,73.7 84.6,69.2 85.4,69.2 74.2,73.7 73.4,73.7 	"/>
	<polygon class="st30" points="74.2,73.7 85.4,69.2 86.2,69.2 75.1,73.7 74.2,73.7 	"/>
	<polygon class="st30" points="75.1,73.7 86.2,69.2 87.1,69.2 75.9,73.7 75.1,73.7 	"/>
	<polygon class="st31" points="75.9,73.7 87.1,69.2 87.9,69.2 76.7,73.7 75.9,73.7 	"/>
	<polygon class="st31" points="76.7,73.7 87.9,69.2 88.7,69.2 77.5,73.7 76.7,73.7 	"/>
	<polygon class="st31" points="77.5,73.7 88.7,69.2 103.4,69.2 92.3,73.7 77.5,73.7 	"/>
	<polygon class="st31" points="77.5,73.7 88.7,69.2 89.5,69.2 78.3,73.7 77.5,73.7 	"/>
	<polygon class="st32" points="78.3,73.7 89.5,69.2 90.3,69.2 79.1,73.7 78.3,73.7 	"/>
	<polygon class="st33" points="79.1,73.7 90.3,69.2 91.1,69.2 80,73.7 79.1,73.7 	"/>
	<polygon class="st33" points="80,73.7 91.1,69.2 92,69.2 80.8,73.7 80,73.7 	"/>
	<polygon class="st34" points="80.8,73.7 92,69.2 92.8,69.2 81.6,73.7 80.8,73.7 	"/>
	<polygon class="st35" points="81.6,73.7 92.8,69.2 93.6,69.2 82.4,73.7 81.6,73.7 	"/>
	<polygon class="st36" points="82.4,73.7 93.6,69.2 94.4,69.2 83.2,73.7 82.4,73.7 	"/>
	<polygon class="st37" points="83.2,73.7 94.4,69.2 95.2,69.2 84,73.7 83.2,73.7 	"/>
	<polygon class="st38" points="84,73.7 95.2,69.2 96,69.2 84.9,73.7 84,73.7 	"/>
	<polygon class="st38" points="84.9,73.7 96,69.2 96.9,69.2 85.7,73.7 84.9,73.7 	"/>
	<polygon class="st39" points="85.7,73.7 96.9,69.2 97.7,69.2 86.5,73.7 85.7,73.7 	"/>
	<polygon class="st40" points="86.5,73.7 97.7,69.2 98.5,69.2 87.3,73.7 86.5,73.7 	"/>
	<polygon class="st41" points="87.3,73.7 98.5,69.2 99.3,69.2 88.1,73.7 87.3,73.7 	"/>
	<polygon class="st42" points="88.1,73.7 99.3,69.2 100.1,69.2 88.9,73.7 88.1,73.7 	"/>
	<polygon class="st42" points="88.9,73.7 100.1,69.2 100.9,69.2 89.8,73.7 88.9,73.7 	"/>
	<polygon class="st43" points="89.8,73.7 100.9,69.2 101.8,69.2 90.6,73.7 89.8,73.7 	"/>
	<polygon class="st44" points="90.6,73.7 101.8,69.2 102.6,69.2 91.4,73.7 90.6,73.7 	"/>
	<polygon class="st45" points="91.4,73.7 102.6,69.2 103.4,69.2 92.2,73.7 91.4,73.7 	"/>
	<polygon class="st46" points="92.2,73.7 103.4,69.2 104.2,69.2 93,73.7 92.2,73.7 	"/>
	<polygon class="st47" points="93,73.7 104.2,69.2 105,69.2 93.8,73.7 93,73.7 	"/>
	<polygon class="st47" points="93.8,73.7 105,69.2 105.8,69.2 94.7,73.7 93.8,73.7 	"/>
	<polygon class="st81" points="94.7,73.7 105.8,69.2 106.6,69.2 106.6,69.2 95.5,73.7 94.7,73.7 	"/>
	<polygon class="st48" points="95.5,73.7 106.6,69.2 106.5,69.6 96.3,73.7 95.5,73.7 	"/>
	<polygon class="st48" points="96.3,73.7 106.5,69.6 105.5,73.7 96.3,73.7 	"/>
	<polygon class="st48" points="96.3,73.7 106.5,69.6 106.4,69.9 97.1,73.7 96.3,73.7 	"/>
	<polygon class="st50" points="97.1,73.7 106.4,69.9 106.3,70.3 97.9,73.7 97.1,73.7 	"/>
	<polygon class="st51" points="97.9,73.7 106.3,70.3 106.2,70.7 98.7,73.7 97.9,73.7 	"/>
	<polygon class="st53" points="98.7,73.7 106.2,70.7 106.2,71 99.6,73.7 98.7,73.7 	"/>
	<polygon class="st55" points="99.6,73.7 106.2,71 106.1,71.4 100.3,73.7 99.6,73.7 	"/>
	<polygon class="st56" points="100.3,73.7 106.1,71.4 106,71.7 101.2,73.7 100.3,73.7 	"/>
	<polygon class="st58" points="101.2,73.7 106,71.7 105.9,72.1 102,73.7 101.2,73.7 	"/>
	<polygon class="st59" points="102,73.7 105.9,72.1 105.8,72.5 102.8,73.7 102,73.7 	"/>
	<polygon class="st61" points="102.8,73.7 105.8,72.5 105.7,72.9 103.6,73.7 102.8,73.7 	"/>
	<polygon class="st63" points="103.6,73.7 105.7,72.9 105.7,73.2 104.4,73.7 103.6,73.7 	"/>
	<polygon class="st64" points="104.4,73.7 105.7,73.2 105.6,73.6 105.2,73.7 104.4,73.7 	"/>
	<polygon class="st66" points="105.2,73.7 105.6,73.6 105.5,73.7 105.2,73.7 	"/>
</g>
</svg>
